ISO-10303-21;
HEADER;
FILE_DESCRIPTION(('CATIA V5 STEP Exchange','CAx-IF Rec.Pracs.--- Model Styling and Organization---1.5--- 2016-08-15','CAx-IF Rec.Pracs.---Supplemental Geometry---1.0---2011-11-01','CAx-IF Rec.Pracs.--- Composite Materials ---1.1---2010-07-15'),'2;1');

FILE_NAME('C:\\Users\\a472897\\Desktop\\CAD till Lars\\15129400.stp','2026-02-13T07:02:42+00:00',('none'),('none'),'CATIA Version 5-6 Release 2021 SP7','CATIA V5 STEP AP214 v2','none');

FILE_SCHEMA(('AUTOMOTIVE_DESIGN { 1 0 10303 214 1 1 1 1 }'));

ENDSEC;
DATA;
#5=PRODUCT('15129400.CATPART','CHAIN LINK','CHAIN LINK',(#2)) ;
#2=PRODUCT_CONTEXT(' ',#1,'mechanical') ;
#1=APPLICATION_CONTEXT('automotive design') ;
#10=PRODUCT_DEFINITION('15129400',' ',#6,#3) ;
#3=PRODUCT_DEFINITION_CONTEXT('part definition',#1,' ') ;
#11=PRODUCT_DEFINITION_SHAPE(' ',' ',#10) ;
#540=MECHANICAL_DESIGN_GEOMETRIC_PRESENTATION_REPRESENTATION(' ',(#29),#16) ;
#19=SHAPE_REPRESENTATION(' ',(#18),#16) ;
#18=AXIS2_PLACEMENT_3D(' ',#17,$,$) ;
#34=AXIS2_PLACEMENT_3D('Cylinder Axis2P3D',#31,#32,#33) ;
#47=AXIS2_PLACEMENT_3D('Circle Axis2P3D',#45,#46,$) ;
#61=AXIS2_PLACEMENT_3D('Circle Axis2P3D',#59,#60,$) ;
#74=AXIS2_PLACEMENT_3D('Torus Axis2P3D',#71,#72,#73) ;
#78=AXIS2_PLACEMENT_3D('Circle Axis2P3D',#76,#77,$) ;
#85=AXIS2_PLACEMENT_3D('Circle Axis2P3D',#83,#84,$) ;
#92=AXIS2_PLACEMENT_3D('Circle Axis2P3D',#90,#91,$) ;
#105=AXIS2_PLACEMENT_3D('Cylinder Axis2P3D',#102,#103,#104) ;
#123=AXIS2_PLACEMENT_3D('Circle Axis2P3D',#121,#122,$) ;
#136=AXIS2_PLACEMENT_3D('Torus Axis2P3D',#133,#134,#135) ;
#140=AXIS2_PLACEMENT_3D('Circle Axis2P3D',#138,#139,$) ;
#147=AXIS2_PLACEMENT_3D('Circle Axis2P3D',#145,#146,$) ;
#154=AXIS2_PLACEMENT_3D('Circle Axis2P3D',#152,#153,$) ;
#167=AXIS2_PLACEMENT_3D('Cylinder Axis2P3D',#164,#165,#166) ;
#185=AXIS2_PLACEMENT_3D('Circle Axis2P3D',#183,#184,$) ;
#198=AXIS2_PLACEMENT_3D('Torus Axis2P3D',#195,#196,#197) ;
#202=AXIS2_PLACEMENT_3D('Circle Axis2P3D',#200,#201,$) ;
#209=AXIS2_PLACEMENT_3D('Circle Axis2P3D',#207,#208,$) ;
#216=AXIS2_PLACEMENT_3D('Circle Axis2P3D',#214,#215,$) ;
#229=AXIS2_PLACEMENT_3D('Cylinder Axis2P3D',#226,#227,#228) ;
#247=AXIS2_PLACEMENT_3D('Circle Axis2P3D',#245,#246,$) ;
#260=AXIS2_PLACEMENT_3D('Torus Axis2P3D',#257,#258,#259) ;
#264=AXIS2_PLACEMENT_3D('Circle Axis2P3D',#262,#263,$) ;
#271=AXIS2_PLACEMENT_3D('Circle Axis2P3D',#269,#270,$) ;
#278=AXIS2_PLACEMENT_3D('Circle Axis2P3D',#276,#277,$) ;
#291=AXIS2_PLACEMENT_3D('Cylinder Axis2P3D',#288,#289,#290) ;
#309=AXIS2_PLACEMENT_3D('Circle Axis2P3D',#307,#308,$) ;
#322=AXIS2_PLACEMENT_3D('Torus Axis2P3D',#319,#320,#321) ;
#326=AXIS2_PLACEMENT_3D('Circle Axis2P3D',#324,#325,$) ;
#333=AXIS2_PLACEMENT_3D('Circle Axis2P3D',#331,#332,$) ;
#340=AXIS2_PLACEMENT_3D('Circle Axis2P3D',#338,#339,$) ;
#353=AXIS2_PLACEMENT_3D('Cylinder Axis2P3D',#350,#351,#352) ;
#371=AXIS2_PLACEMENT_3D('Circle Axis2P3D',#369,#370,$) ;
#383=AXIS2_PLACEMENT_3D('Circle Axis2P3D',#381,#382,$) ;
#388=AXIS2_PLACEMENT_3D('Circle Axis2P3D',#386,#387,$) ;
#400=AXIS2_PLACEMENT_3D('Circle Axis2P3D',#398,#399,$) ;
#412=AXIS2_PLACEMENT_3D('Circle Axis2P3D',#410,#411,$) ;
#424=AXIS2_PLACEMENT_3D('Circle Axis2P3D',#422,#423,$) ;
#436=AXIS2_PLACEMENT_3D('Circle Axis2P3D',#434,#435,$) ;
#448=AXIS2_PLACEMENT_3D('Circle Axis2P3D',#446,#447,$) ;
#460=AXIS2_PLACEMENT_3D('Circle Axis2P3D',#458,#459,$) ;
#472=AXIS2_PLACEMENT_3D('Circle Axis2P3D',#470,#471,$) ;
#484=AXIS2_PLACEMENT_3D('Circle Axis2P3D',#482,#483,$) ;
#496=AXIS2_PLACEMENT_3D('Circle Axis2P3D',#494,#495,$) ;
#508=AXIS2_PLACEMENT_3D('Circle Axis2P3D',#506,#507,$) ;
#521=AXIS2_PLACEMENT_3D('Plane Axis2P3D',#518,#519,#520) ;
#531=AXIS2_PLACEMENT_3D('Plane Axis2P3D',#528,#529,#530) ;
#17=CARTESIAN_POINT(' ',(0.,0.,0.)) ;
#31=CARTESIAN_POINT('Axis2P3D Location',(-10.4565993079,-17.5,3.63411351308)) ;
#36=CARTESIAN_POINT('Line Origine',(-9.93458880776,-15.2767804942,2.61686228214)) ;
#40=CARTESIAN_POINT('Vertex',(-14.6779894999,-15.2767804942,0.18274876906)) ;
#42=CARTESIAN_POINT('Vertex',(-5.19118811562,-15.2767804942,5.05097579521)) ;
#45=CARTESIAN_POINT('Axis2P3D Location',(-15.2,-17.5,1.2)) ;
#49=CARTESIAN_POINT('Vertex',(-15.7220105001,-19.7232195058,2.21725123094)) ;
#52=CARTESIAN_POINT('Line Origine',(-10.9786098079,-19.7232195058,4.65136474402)) ;
#56=CARTESIAN_POINT('Vertex',(-6.23520911579,-19.7232195058,7.08547825709)) ;
#59=CARTESIAN_POINT('Axis2P3D Location',(-5.7131986157,-17.5,6.06822702615)) ;
#71=CARTESIAN_POINT('Axis2P3D Location',(-0.00626991280719,-17.5,-5.05296736924)) ;
#76=CARTESIAN_POINT('Axis2P3D Location',(-0.00626991280719,-15.2767804942,-5.05296736924)) ;
#80=CARTESIAN_POINT('Vertex',(5.18766223333,-15.2767804942,5.04634513714)) ;
#83=CARTESIAN_POINT('Axis2P3D Location',(-0.00626991280719,-19.7232195058,-5.05296736924)) ;
#87=CARTESIAN_POINT('Vertex',(6.23349825657,-19.7232195058,7.07991518233)) ;
#90=CARTESIAN_POINT('Axis2P3D Location',(5.71058024495,-17.5,6.06313015974)) ;
#102=CARTESIAN_POINT('Axis2P3D Location',(8.27046086378,-17.5,4.7466201272)) ;
#107=CARTESIAN_POINT('Line Origine',(7.74754285216,-15.2767804942,3.7298351046)) ;
#111=CARTESIAN_POINT('Vertex',(10.307423471,-15.2767804942,2.41332507206)) ;
#114=CARTESIAN_POINT('Line Origine',(8.7933788754,-19.7232195058,5.76340514979)) ;
#118=CARTESIAN_POINT('Vertex',(11.3532594942,-19.7232195058,4.44689511725)) ;
#121=CARTESIAN_POINT('Axis2P3D Location',(10.8303414826,-17.5,3.43011009466)) ;
#133=CARTESIAN_POINT('Axis2P3D Location',(10.8303414826,-10.,3.43011009466)) ;
#138=CARTESIAN_POINT('Axis2P3D Location',(10.307423471,-10.,2.41332507206)) ;
#142=CARTESIAN_POINT('Vertex',(15.,-10.,1.88737914186E-15)) ;
#145=CARTESIAN_POINT('Axis2P3D Location',(11.3532594942,-10.,4.44689511725)) ;
#149=CARTESIAN_POINT('Vertex',(20.,-10.,-1.37927510063E-16)) ;
#152=CARTESIAN_POINT('Axis2P3D Location',(17.5,-10.,4.4408920985E-16)) ;
#164=CARTESIAN_POINT('Axis2P3D Location',(17.5,0.,-1.66533453694E-16)) ;
#169=CARTESIAN_POINT('Line Origine',(15.,0.,1.11022302463E-16)) ;
#173=CARTESIAN_POINT('Vertex',(15.,10.,1.88737914186E-15)) ;
#176=CARTESIAN_POINT('Line Origine',(20.,0.,-1.37927510063E-16)) ;
#180=CARTESIAN_POINT('Vertex',(20.,10.,-1.37927510063E-16)) ;
#183=CARTESIAN_POINT('Axis2P3D Location',(17.5,10.,-1.66533453694E-16)) ;
#195=CARTESIAN_POINT('Axis2P3D Location',(10.8303414826,10.,3.43011009466)) ;
#200=CARTESIAN_POINT('Axis2P3D Location',(10.307423471,10.,2.41332507206)) ;
#204=CARTESIAN_POINT('Vertex',(10.307423471,15.2767804942,2.41332507206)) ;
#207=CARTESIAN_POINT('Axis2P3D Location',(11.3532594942,10.,4.44689511725)) ;
#211=CARTESIAN_POINT('Vertex',(11.3532594942,19.7232195058,4.44689511725)) ;
#214=CARTESIAN_POINT('Axis2P3D Location',(10.8303414826,17.5,3.43011009466)) ;
#226=CARTESIAN_POINT('Axis2P3D Location',(8.27359582019,17.5,4.7450078639)) ;
#231=CARTESIAN_POINT('Line Origine',(7.75067780857,15.2767804942,3.72822284131)) ;
#235=CARTESIAN_POINT('Vertex',(5.19393214614,15.2767804942,5.04312061056)) ;
#238=CARTESIAN_POINT('Line Origine',(8.79651383181,19.7232195058,5.7617928865)) ;
#242=CARTESIAN_POINT('Vertex',(6.23976816938,19.7232195058,7.07669065575)) ;
#245=CARTESIAN_POINT('Axis2P3D Location',(5.71685015776,17.5,6.05990563315)) ;
#257=CARTESIAN_POINT('Axis2P3D Location',(-1.7763568394E-15,17.5,-5.05619189582)) ;
#262=CARTESIAN_POINT('Axis2P3D Location',(-1.7763568394E-15,15.2767804942,-5.05619189582)) ;
#266=CARTESIAN_POINT('Vertex',(-5.19393214614,15.2767804942,5.04312061056)) ;
#269=CARTESIAN_POINT('Axis2P3D Location',(-1.7763568394E-15,19.7232195058,-5.05619189582)) ;
#273=CARTESIAN_POINT('Vertex',(-6.23976816938,19.7232195058,7.07669065575)) ;
#276=CARTESIAN_POINT('Axis2P3D Location',(-5.71685015776,17.5,6.05990563315)) ;
#288=CARTESIAN_POINT('Axis2P3D Location',(-8.27359582019,17.5,4.7450078639)) ;
#293=CARTESIAN_POINT('Line Origine',(-7.75067780857,15.2767804942,3.72822284131)) ;
#297=CARTESIAN_POINT('Vertex',(-10.307423471,15.2767804942,2.41332507206)) ;
#300=CARTESIAN_POINT('Line Origine',(-8.79651383181,19.7232195058,5.7617928865)) ;
#304=CARTESIAN_POINT('Vertex',(-11.3532594942,19.7232195058,4.44689511725)) ;
#307=CARTESIAN_POINT('Axis2P3D Location',(-10.8303414826,17.5,3.43011009466)) ;
#319=CARTESIAN_POINT('Axis2P3D Location',(-10.8303414826,10.,3.43011009466)) ;
#324=CARTESIAN_POINT('Axis2P3D Location',(-10.307423471,10.,2.41332507206)) ;
#328=CARTESIAN_POINT('Vertex',(-15.,10.,3.5527136788E-15)) ;
#331=CARTESIAN_POINT('Axis2P3D Location',(-11.3532594942,10.,4.44689511725)) ;
#335=CARTESIAN_POINT('Vertex',(-20.,10.,-2.35837355931E-15)) ;
#338=CARTESIAN_POINT('Axis2P3D Location',(-17.5,10.,-3.99680288865E-15)) ;
#350=CARTESIAN_POINT('Axis2P3D Location',(-17.5,-6.,-4.4408920985E-16)) ;
#355=CARTESIAN_POINT('Line Origine',(-15.,-6.,1.7763568394E-15)) ;
#359=CARTESIAN_POINT('Vertex',(-15.,-22.,1.7763568394E-15)) ;
#362=CARTESIAN_POINT('Line Origine',(-20.,-6.,-2.35837355931E-15)) ;
#366=CARTESIAN_POINT('Vertex',(-20.,-22.,-2.35837355931E-15)) ;
#369=CARTESIAN_POINT('Axis2P3D Location',(-17.5,-22.,-4.4408920985E-16)) ;
#381=CARTESIAN_POINT('Axis2P3D Location',(-15.2,-17.5,1.2)) ;
#386=CARTESIAN_POINT('Axis2P3D Location',(-5.7131986157,-17.5,6.06822702615)) ;
#398=CARTESIAN_POINT('Axis2P3D Location',(5.71058024495,-17.5,6.06313015974)) ;
#410=CARTESIAN_POINT('Axis2P3D Location',(10.8303414826,-17.5,3.43011009466)) ;
#422=CARTESIAN_POINT('Axis2P3D Location',(17.5,-10.,4.4408920985E-16)) ;
#434=CARTESIAN_POINT('Axis2P3D Location',(17.5,10.,-1.66533453694E-16)) ;
#446=CARTESIAN_POINT('Axis2P3D Location',(10.8303414826,17.5,3.43011009466)) ;
#458=CARTESIAN_POINT('Axis2P3D Location',(5.71685015776,17.5,6.05990563315)) ;
#470=CARTESIAN_POINT('Axis2P3D Location',(-5.71685015776,17.5,6.05990563315)) ;
#482=CARTESIAN_POINT('Axis2P3D Location',(-10.8303414826,17.5,3.43011009466)) ;
#494=CARTESIAN_POINT('Axis2P3D Location',(-17.5,10.,-3.99680288865E-15)) ;
#506=CARTESIAN_POINT('Axis2P3D Location',(-17.5,-22.,-4.4408920985E-16)) ;
#518=CARTESIAN_POINT('Axis2P3D Location',(-11.5459264994,-1.93746345943,-5.92075861658)) ;
#528=CARTESIAN_POINT('Axis2P3D Location',(3.5527136788E-15,-22.,1.50990331349E-14)) ;
#32=DIRECTION('Axis2P3D Direction',(0.889695551631,0.,0.456554296232)) ;
#33=DIRECTION('Axis2P3D XDirection',(0.208804200035,0.889287802318,-0.406900492376)) ;
#37=DIRECTION('Vector Direction',(0.889695551631,0.,0.456554296232)) ;
#46=DIRECTION('Axis2P3D Direction',(0.889695551631,0.,0.456554296232)) ;
#53=DIRECTION('Vector Direction',(0.889695551631,0.,0.456554296232)) ;
#60=DIRECTION('Axis2P3D Direction',(0.889695551631,0.,0.456554296232)) ;
#72=DIRECTION('Axis2P3D Direction',(0.,1.,0.)) ;
#73=DIRECTION('Axis2P3D XDirection',(-0.456554296232,0.,0.889695551631)) ;
#77=DIRECTION('Axis2P3D Direction',(0.,1.,0.)) ;
#84=DIRECTION('Axis2P3D Direction',(0.,1.,0.)) ;
#91=DIRECTION('Axis2P3D Direction',(-0.889287802318,0.,0.457348012621)) ;
#103=DIRECTION('Axis2P3D Direction',(0.889287802318,2.77555756156E-17,-0.457348012621)) ;
#104=DIRECTION('Axis2P3D XDirection',(-0.209167204648,0.889287802318,-0.406714009038)) ;
#108=DIRECTION('Vector Direction',(0.889287802318,0.,-0.457348012621)) ;
#115=DIRECTION('Vector Direction',(0.889287802318,0.,-0.457348012621)) ;
#122=DIRECTION('Axis2P3D Direction',(0.889287802318,2.77555756156E-17,-0.457348012621)) ;
#134=DIRECTION('Axis2P3D Direction',(0.457348012621,3.0089380378E-18,0.889287802318)) ;
#135=DIRECTION('Axis2P3D XDirection',(3.36636485325E-16,-1.,-1.68318242662E-16)) ;
#139=DIRECTION('Axis2P3D Direction',(0.457348012621,3.0089380378E-18,0.889287802318)) ;
#146=DIRECTION('Axis2P3D Direction',(0.457348012621,3.0089380378E-18,0.889287802318)) ;
#153=DIRECTION('Axis2P3D Direction',(-4.09990270636E-16,-1.,2.14235676021E-16)) ;
#165=DIRECTION('Axis2P3D Direction',(0.,1.,0.)) ;
#166=DIRECTION('Axis2P3D XDirection',(-1.,0.,1.11022302463E-16)) ;
#170=DIRECTION('Vector Direction',(0.,1.,0.)) ;
#177=DIRECTION('Vector Direction',(0.,1.,0.)) ;
#184=DIRECTION('Axis2P3D Direction',(0.,1.,0.)) ;
#196=DIRECTION('Axis2P3D Direction',(0.457348012621,-4.03743217798E-16,0.889287802318)) ;
#197=DIRECTION('Axis2P3D XDirection',(0.889287802318,-3.36636485325E-16,-0.457348012621)) ;
#201=DIRECTION('Axis2P3D Direction',(0.457348012621,-4.03743217798E-16,0.889287802318)) ;
#208=DIRECTION('Axis2P3D Direction',(0.457348012621,-4.03743217798E-16,0.889287802318)) ;
#215=DIRECTION('Axis2P3D Direction',(0.889287802318,-3.06161699787E-16,-0.457348012621)) ;
#227=DIRECTION('Axis2P3D Direction',(-0.889287802318,2.77555756156E-17,0.457348012621)) ;
#228=DIRECTION('Axis2P3D XDirection',(-0.209167204648,-0.889287802318,-0.406714009038)) ;
#232=DIRECTION('Vector Direction',(-0.889287802318,0.,0.457348012621)) ;
#239=DIRECTION('Vector Direction',(-0.889287802318,0.,0.457348012621)) ;
#246=DIRECTION('Axis2P3D Direction',(-0.889287802318,2.77555756156E-17,0.457348012621)) ;
#258=DIRECTION('Axis2P3D Direction',(0.,-1.,0.)) ;
#259=DIRECTION('Axis2P3D XDirection',(0.457348012621,0.,0.889287802318)) ;
#263=DIRECTION('Axis2P3D Direction',(0.,-1.,0.)) ;
#270=DIRECTION('Axis2P3D Direction',(0.,-1.,0.)) ;
#277=DIRECTION('Axis2P3D Direction',(0.889287802318,0.,0.457348012621)) ;
#289=DIRECTION('Axis2P3D Direction',(-0.889287802318,0.,-0.457348012621)) ;
#290=DIRECTION('Axis2P3D XDirection',(0.209167204648,-0.889287802318,-0.406714009038)) ;
#294=DIRECTION('Vector Direction',(-0.889287802318,0.,-0.457348012621)) ;
#301=DIRECTION('Vector Direction',(-0.889287802318,0.,-0.457348012621)) ;
#308=DIRECTION('Axis2P3D Direction',(-0.889287802318,0.,-0.457348012621)) ;
#320=DIRECTION('Axis2P3D Direction',(-0.457348012621,-1.05312831323E-16,0.889287802318)) ;
#321=DIRECTION('Axis2P3D XDirection',(1.00990945597E-15,1.,6.7327297065E-16)) ;
#325=DIRECTION('Axis2P3D Direction',(-0.457348012621,-1.05312831323E-16,0.889287802318)) ;
#332=DIRECTION('Axis2P3D Direction',(-0.457348012621,-1.05312831323E-16,0.889287802318)) ;
#339=DIRECTION('Axis2P3D Direction',(2.64180456992E-15,1.,1.47706613954E-15)) ;
#351=DIRECTION('Axis2P3D Direction',(-0.,-1.,0.)) ;
#352=DIRECTION('Axis2P3D XDirection',(1.,0.,8.881784197E-16)) ;
#356=DIRECTION('Vector Direction',(0.,-1.,0.)) ;
#363=DIRECTION('Vector Direction',(0.,-1.,0.)) ;
#370=DIRECTION('Axis2P3D Direction',(-0.,-1.,0.)) ;
#382=DIRECTION('Axis2P3D Direction',(0.889695551631,0.,0.456554296232)) ;
#387=DIRECTION('Axis2P3D Direction',(0.889695551631,0.,0.456554296232)) ;
#399=DIRECTION('Axis2P3D Direction',(-0.889287802318,0.,0.457348012621)) ;
#411=DIRECTION('Axis2P3D Direction',(0.889287802318,2.77555756156E-17,-0.457348012621)) ;
#423=DIRECTION('Axis2P3D Direction',(-4.09990270636E-16,-1.,2.14235676021E-16)) ;
#435=DIRECTION('Axis2P3D Direction',(0.,1.,0.)) ;
#447=DIRECTION('Axis2P3D Direction',(0.889287802318,-3.06161699787E-16,-0.457348012621)) ;
#459=DIRECTION('Axis2P3D Direction',(-0.889287802318,2.77555756156E-17,0.457348012621)) ;
#471=DIRECTION('Axis2P3D Direction',(0.889287802318,0.,0.457348012621)) ;
#483=DIRECTION('Axis2P3D Direction',(-0.889287802318,0.,-0.457348012621)) ;
#495=DIRECTION('Axis2P3D Direction',(2.64180456992E-15,1.,1.47706613954E-15)) ;
#507=DIRECTION('Axis2P3D Direction',(-0.,-1.,0.)) ;
#519=DIRECTION('Axis2P3D Direction',(0.889695551631,0.,0.456554296232)) ;
#520=DIRECTION('Axis2P3D XDirection',(0.208804200035,0.889287802318,-0.406900492376)) ;
#529=DIRECTION('Axis2P3D Direction',(0.,-1.,0.)) ;
#530=DIRECTION('Axis2P3D XDirection',(1.,0.,8.881784197E-16)) ;
#8=PRODUCT_RELATED_PRODUCT_CATEGORY('part',$,(#5)) ;
#7=PRODUCT_CATEGORY('part','specification') ;
#29=STYLED_ITEM(' ',(#28),#21) ;
#28=PRESENTATION_STYLE_ASSIGNMENT((#27)) ;
#27=SURFACE_STYLE_USAGE(.BOTH.,#26) ;
#26=SURFACE_SIDE_STYLE(' ',(#25)) ;
#25=SURFACE_STYLE_FILL_AREA(#24) ;
#24=FILL_AREA_STYLE(' ',(#23)) ;
#23=FILL_AREA_STYLE_COLOUR(' ',#22) ;
#38=VECTOR('Line Direction',#37,1.) ;
#54=VECTOR('Line Direction',#53,1.) ;
#109=VECTOR('Line Direction',#108,1.) ;
#116=VECTOR('Line Direction',#115,1.) ;
#171=VECTOR('Line Direction',#170,1.) ;
#178=VECTOR('Line Direction',#177,1.) ;
#233=VECTOR('Line Direction',#232,1.) ;
#240=VECTOR('Line Direction',#239,1.) ;
#295=VECTOR('Line Direction',#294,1.) ;
#302=VECTOR('Line Direction',#301,1.) ;
#357=VECTOR('Line Direction',#356,1.) ;
#364=VECTOR('Line Direction',#363,1.) ;
#15=UNCERTAINTY_MEASURE_WITH_UNIT(LENGTH_MEASURE(0.005),#12,'distance_accuracy_value','CONFUSED CURVE UNCERTAINTY') ;
#539=SHAPE_REPRESENTATION_RELATIONSHIP(' ',' ',#19,#538) ;
#65=ORIENTED_EDGE('',*,*,#44,.F.) ;
#66=ORIENTED_EDGE('',*,*,#51,.T.) ;
#67=ORIENTED_EDGE('',*,*,#58,.T.) ;
#68=ORIENTED_EDGE('',*,*,#63,.F.) ;
#96=ORIENTED_EDGE('',*,*,#82,.F.) ;
#97=ORIENTED_EDGE('',*,*,#63,.T.) ;
#98=ORIENTED_EDGE('',*,*,#89,.T.) ;
#99=ORIENTED_EDGE('',*,*,#94,.F.) ;
#127=ORIENTED_EDGE('',*,*,#113,.F.) ;
#128=ORIENTED_EDGE('',*,*,#94,.T.) ;
#129=ORIENTED_EDGE('',*,*,#120,.T.) ;
#130=ORIENTED_EDGE('',*,*,#125,.F.) ;
#158=ORIENTED_EDGE('',*,*,#144,.F.) ;
#159=ORIENTED_EDGE('',*,*,#125,.T.) ;
#160=ORIENTED_EDGE('',*,*,#151,.T.) ;
#161=ORIENTED_EDGE('',*,*,#156,.F.) ;
#189=ORIENTED_EDGE('',*,*,#175,.F.) ;
#190=ORIENTED_EDGE('',*,*,#156,.T.) ;
#191=ORIENTED_EDGE('',*,*,#182,.T.) ;
#192=ORIENTED_EDGE('',*,*,#187,.F.) ;
#220=ORIENTED_EDGE('',*,*,#206,.F.) ;
#221=ORIENTED_EDGE('',*,*,#187,.T.) ;
#222=ORIENTED_EDGE('',*,*,#213,.T.) ;
#223=ORIENTED_EDGE('',*,*,#218,.F.) ;
#251=ORIENTED_EDGE('',*,*,#237,.F.) ;
#252=ORIENTED_EDGE('',*,*,#218,.T.) ;
#253=ORIENTED_EDGE('',*,*,#244,.T.) ;
#254=ORIENTED_EDGE('',*,*,#249,.F.) ;
#282=ORIENTED_EDGE('',*,*,#268,.F.) ;
#283=ORIENTED_EDGE('',*,*,#249,.T.) ;
#284=ORIENTED_EDGE('',*,*,#275,.T.) ;
#285=ORIENTED_EDGE('',*,*,#280,.F.) ;
#313=ORIENTED_EDGE('',*,*,#299,.F.) ;
#314=ORIENTED_EDGE('',*,*,#280,.T.) ;
#315=ORIENTED_EDGE('',*,*,#306,.T.) ;
#316=ORIENTED_EDGE('',*,*,#311,.F.) ;
#344=ORIENTED_EDGE('',*,*,#330,.F.) ;
#345=ORIENTED_EDGE('',*,*,#311,.T.) ;
#346=ORIENTED_EDGE('',*,*,#337,.T.) ;
#347=ORIENTED_EDGE('',*,*,#342,.F.) ;
#375=ORIENTED_EDGE('',*,*,#361,.F.) ;
#376=ORIENTED_EDGE('',*,*,#342,.T.) ;
#377=ORIENTED_EDGE('',*,*,#368,.T.) ;
#378=ORIENTED_EDGE('',*,*,#373,.F.) ;
#392=ORIENTED_EDGE('',*,*,#58,.F.) ;
#393=ORIENTED_EDGE('',*,*,#385,.T.) ;
#394=ORIENTED_EDGE('',*,*,#44,.T.) ;
#395=ORIENTED_EDGE('',*,*,#390,.F.) ;
#404=ORIENTED_EDGE('',*,*,#89,.F.) ;
#405=ORIENTED_EDGE('',*,*,#390,.T.) ;
#406=ORIENTED_EDGE('',*,*,#82,.T.) ;
#407=ORIENTED_EDGE('',*,*,#402,.F.) ;
#416=ORIENTED_EDGE('',*,*,#120,.F.) ;
#417=ORIENTED_EDGE('',*,*,#402,.T.) ;
#418=ORIENTED_EDGE('',*,*,#113,.T.) ;
#419=ORIENTED_EDGE('',*,*,#414,.F.) ;
#428=ORIENTED_EDGE('',*,*,#151,.F.) ;
#429=ORIENTED_EDGE('',*,*,#414,.T.) ;
#430=ORIENTED_EDGE('',*,*,#144,.T.) ;
#431=ORIENTED_EDGE('',*,*,#426,.F.) ;
#440=ORIENTED_EDGE('',*,*,#182,.F.) ;
#441=ORIENTED_EDGE('',*,*,#426,.T.) ;
#442=ORIENTED_EDGE('',*,*,#175,.T.) ;
#443=ORIENTED_EDGE('',*,*,#438,.F.) ;
#452=ORIENTED_EDGE('',*,*,#213,.F.) ;
#453=ORIENTED_EDGE('',*,*,#438,.T.) ;
#454=ORIENTED_EDGE('',*,*,#206,.T.) ;
#455=ORIENTED_EDGE('',*,*,#450,.F.) ;
#464=ORIENTED_EDGE('',*,*,#244,.F.) ;
#465=ORIENTED_EDGE('',*,*,#450,.T.) ;
#466=ORIENTED_EDGE('',*,*,#237,.T.) ;
#467=ORIENTED_EDGE('',*,*,#462,.F.) ;
#476=ORIENTED_EDGE('',*,*,#275,.F.) ;
#477=ORIENTED_EDGE('',*,*,#462,.T.) ;
#478=ORIENTED_EDGE('',*,*,#268,.T.) ;
#479=ORIENTED_EDGE('',*,*,#474,.F.) ;
#488=ORIENTED_EDGE('',*,*,#306,.F.) ;
#489=ORIENTED_EDGE('',*,*,#474,.T.) ;
#490=ORIENTED_EDGE('',*,*,#299,.T.) ;
#491=ORIENTED_EDGE('',*,*,#486,.F.) ;
#500=ORIENTED_EDGE('',*,*,#337,.F.) ;
#501=ORIENTED_EDGE('',*,*,#486,.T.) ;
#502=ORIENTED_EDGE('',*,*,#330,.T.) ;
#503=ORIENTED_EDGE('',*,*,#498,.F.) ;
#512=ORIENTED_EDGE('',*,*,#368,.F.) ;
#513=ORIENTED_EDGE('',*,*,#498,.T.) ;
#514=ORIENTED_EDGE('',*,*,#361,.T.) ;
#515=ORIENTED_EDGE('',*,*,#510,.F.) ;
#524=ORIENTED_EDGE('',*,*,#385,.F.) ;
#525=ORIENTED_EDGE('',*,*,#51,.F.) ;
#534=ORIENTED_EDGE('',*,*,#373,.T.) ;
#535=ORIENTED_EDGE('',*,*,#510,.T.) ;
#30=CLOSED_SHELL('Closed Shell',(#70,#101,#132,#163,#194,#225,#256,#287,#318,#349,#380,#397,#409,#421,#433,#445,#457,#469,#481,#493,#505,#517,#527,#537)) ;
#538=ADVANCED_BREP_SHAPE_REPRESENTATION('NONE',(#21),#16) ;
#70=ADVANCED_FACE('PartBody',(#69),#35,.T.) ;
#101=ADVANCED_FACE('PartBody',(#100),#75,.T.) ;
#132=ADVANCED_FACE('PartBody',(#131),#106,.T.) ;
#163=ADVANCED_FACE('PartBody',(#162),#137,.T.) ;
#194=ADVANCED_FACE('PartBody',(#193),#168,.T.) ;
#225=ADVANCED_FACE('PartBody',(#224),#199,.T.) ;
#256=ADVANCED_FACE('PartBody',(#255),#230,.T.) ;
#287=ADVANCED_FACE('PartBody',(#286),#261,.T.) ;
#318=ADVANCED_FACE('PartBody',(#317),#292,.T.) ;
#349=ADVANCED_FACE('PartBody',(#348),#323,.T.) ;
#380=ADVANCED_FACE('PartBody',(#379),#354,.T.) ;
#397=ADVANCED_FACE('PartBody',(#396),#35,.T.) ;
#409=ADVANCED_FACE('PartBody',(#408),#75,.T.) ;
#421=ADVANCED_FACE('PartBody',(#420),#106,.T.) ;
#433=ADVANCED_FACE('PartBody',(#432),#137,.T.) ;
#445=ADVANCED_FACE('PartBody',(#444),#168,.T.) ;
#457=ADVANCED_FACE('PartBody',(#456),#199,.T.) ;
#469=ADVANCED_FACE('PartBody',(#468),#230,.T.) ;
#481=ADVANCED_FACE('PartBody',(#480),#261,.T.) ;
#493=ADVANCED_FACE('PartBody',(#492),#292,.T.) ;
#505=ADVANCED_FACE('PartBody',(#504),#323,.T.) ;
#517=ADVANCED_FACE('PartBody',(#516),#354,.T.) ;
#527=ADVANCED_FACE('PartBody',(#526),#522,.F.) ;
#537=ADVANCED_FACE('PartBody',(#536),#532,.T.) ;
#4=APPLICATION_PROTOCOL_DEFINITION('international standard','automotive_design',2001,#1) ;
#21=MANIFOLD_SOLID_BREP('PartBody',#30) ;
#48=CIRCLE('generated circle',#47,2.5) ;
#62=CIRCLE('generated circle',#61,2.5) ;
#79=CIRCLE('generated circle',#78,11.3566299684) ;
#86=CIRCLE('generated circle',#85,13.6433700316) ;
#93=CIRCLE('generated circle',#92,2.5) ;
#124=CIRCLE('generated circle',#123,2.5) ;
#141=CIRCLE('generated circle',#140,5.2767804942) ;
#148=CIRCLE('generated circle',#147,9.7232195058) ;
#155=CIRCLE('generated circle',#154,2.5) ;
#186=CIRCLE('generated circle',#185,2.5) ;
#203=CIRCLE('generated circle',#202,5.2767804942) ;
#210=CIRCLE('generated circle',#209,9.7232195058) ;
#217=CIRCLE('generated circle',#216,2.5) ;
#248=CIRCLE('generated circle',#247,2.5) ;
#265=CIRCLE('generated circle',#264,11.3566299684) ;
#272=CIRCLE('generated circle',#271,13.6433700316) ;
#279=CIRCLE('generated circle',#278,2.5) ;
#310=CIRCLE('generated circle',#309,2.5) ;
#327=CIRCLE('generated circle',#326,5.2767804942) ;
#334=CIRCLE('generated circle',#333,9.7232195058) ;
#341=CIRCLE('generated circle',#340,2.5) ;
#372=CIRCLE('generated circle',#371,2.5) ;
#384=CIRCLE('generated circle',#383,2.5) ;
#389=CIRCLE('generated circle',#388,2.5) ;
#401=CIRCLE('generated circle',#400,2.5) ;
#413=CIRCLE('generated circle',#412,2.5) ;
#425=CIRCLE('generated circle',#424,2.5) ;
#437=CIRCLE('generated circle',#436,2.5) ;
#449=CIRCLE('generated circle',#448,2.5) ;
#461=CIRCLE('generated circle',#460,2.5) ;
#473=CIRCLE('generated circle',#472,2.5) ;
#485=CIRCLE('generated circle',#484,2.5) ;
#497=CIRCLE('generated circle',#496,2.5) ;
#509=CIRCLE('generated circle',#508,2.5) ;
#22=COLOUR_RGB('Colour',0.823529411765,0.823529411765,1.) ;
#35=CYLINDRICAL_SURFACE('generated cylinder',#34,2.5) ;
#106=CYLINDRICAL_SURFACE('generated cylinder',#105,2.5) ;
#168=CYLINDRICAL_SURFACE('generated cylinder',#167,2.5) ;
#230=CYLINDRICAL_SURFACE('generated cylinder',#229,2.5) ;
#292=CYLINDRICAL_SURFACE('generated cylinder',#291,2.5) ;
#354=CYLINDRICAL_SURFACE('generated cylinder',#353,2.5) ;
#75=TOROIDAL_SURFACE('homeo Torus',#74,12.5,2.5) ;
#137=TOROIDAL_SURFACE('homeo Torus',#136,7.5,2.5) ;
#199=TOROIDAL_SURFACE('homeo Torus',#198,7.5,2.5) ;
#261=TOROIDAL_SURFACE('homeo Torus',#260,12.5,2.5) ;
#323=TOROIDAL_SURFACE('homeo Torus',#322,7.5,2.5) ;
#44=EDGE_CURVE('',#41,#43,#39,.T.) ;
#51=EDGE_CURVE('',#41,#50,#48,.T.) ;
#58=EDGE_CURVE('',#50,#57,#55,.T.) ;
#63=EDGE_CURVE('',#43,#57,#62,.T.) ;
#82=EDGE_CURVE('',#43,#81,#79,.T.) ;
#89=EDGE_CURVE('',#57,#88,#86,.T.) ;
#94=EDGE_CURVE('',#81,#88,#93,.F.) ;
#113=EDGE_CURVE('',#81,#112,#110,.T.) ;
#120=EDGE_CURVE('',#88,#119,#117,.T.) ;
#125=EDGE_CURVE('',#112,#119,#124,.T.) ;
#144=EDGE_CURVE('',#112,#143,#141,.T.) ;
#151=EDGE_CURVE('',#119,#150,#148,.T.) ;
#156=EDGE_CURVE('',#143,#150,#155,.F.) ;
#175=EDGE_CURVE('',#143,#174,#172,.T.) ;
#182=EDGE_CURVE('',#150,#181,#179,.T.) ;
#187=EDGE_CURVE('',#174,#181,#186,.T.) ;
#206=EDGE_CURVE('',#174,#205,#203,.T.) ;
#213=EDGE_CURVE('',#181,#212,#210,.T.) ;
#218=EDGE_CURVE('',#205,#212,#217,.F.) ;
#237=EDGE_CURVE('',#205,#236,#234,.T.) ;
#244=EDGE_CURVE('',#212,#243,#241,.T.) ;
#249=EDGE_CURVE('',#236,#243,#248,.T.) ;
#268=EDGE_CURVE('',#236,#267,#265,.T.) ;
#275=EDGE_CURVE('',#243,#274,#272,.T.) ;
#280=EDGE_CURVE('',#267,#274,#279,.F.) ;
#299=EDGE_CURVE('',#267,#298,#296,.T.) ;
#306=EDGE_CURVE('',#274,#305,#303,.T.) ;
#311=EDGE_CURVE('',#298,#305,#310,.T.) ;
#330=EDGE_CURVE('',#298,#329,#327,.T.) ;
#337=EDGE_CURVE('',#305,#336,#334,.T.) ;
#342=EDGE_CURVE('',#329,#336,#341,.F.) ;
#361=EDGE_CURVE('',#329,#360,#358,.T.) ;
#368=EDGE_CURVE('',#336,#367,#365,.T.) ;
#373=EDGE_CURVE('',#360,#367,#372,.T.) ;
#385=EDGE_CURVE('',#50,#41,#384,.T.) ;
#390=EDGE_CURVE('',#57,#43,#389,.T.) ;
#402=EDGE_CURVE('',#88,#81,#401,.F.) ;
#414=EDGE_CURVE('',#119,#112,#413,.T.) ;
#426=EDGE_CURVE('',#150,#143,#425,.F.) ;
#438=EDGE_CURVE('',#181,#174,#437,.T.) ;
#450=EDGE_CURVE('',#212,#205,#449,.F.) ;
#462=EDGE_CURVE('',#243,#236,#461,.T.) ;
#474=EDGE_CURVE('',#274,#267,#473,.F.) ;
#486=EDGE_CURVE('',#305,#298,#485,.T.) ;
#498=EDGE_CURVE('',#336,#329,#497,.F.) ;
#510=EDGE_CURVE('',#367,#360,#509,.T.) ;
#64=EDGE_LOOP('',(#65,#66,#67,#68)) ;
#95=EDGE_LOOP('',(#96,#97,#98,#99)) ;
#126=EDGE_LOOP('',(#127,#128,#129,#130)) ;
#157=EDGE_LOOP('',(#158,#159,#160,#161)) ;
#188=EDGE_LOOP('',(#189,#190,#191,#192)) ;
#219=EDGE_LOOP('',(#220,#221,#222,#223)) ;
#250=EDGE_LOOP('',(#251,#252,#253,#254)) ;
#281=EDGE_LOOP('',(#282,#283,#284,#285)) ;
#312=EDGE_LOOP('',(#313,#314,#315,#316)) ;
#343=EDGE_LOOP('',(#344,#345,#346,#347)) ;
#374=EDGE_LOOP('',(#375,#376,#377,#378)) ;
#391=EDGE_LOOP('',(#392,#393,#394,#395)) ;
#403=EDGE_LOOP('',(#404,#405,#406,#407)) ;
#415=EDGE_LOOP('',(#416,#417,#418,#419)) ;
#427=EDGE_LOOP('',(#428,#429,#430,#431)) ;
#439=EDGE_LOOP('',(#440,#441,#442,#443)) ;
#451=EDGE_LOOP('',(#452,#453,#454,#455)) ;
#463=EDGE_LOOP('',(#464,#465,#466,#467)) ;
#475=EDGE_LOOP('',(#476,#477,#478,#479)) ;
#487=EDGE_LOOP('',(#488,#489,#490,#491)) ;
#499=EDGE_LOOP('',(#500,#501,#502,#503)) ;
#511=EDGE_LOOP('',(#512,#513,#514,#515)) ;
#523=EDGE_LOOP('',(#524,#525)) ;
#533=EDGE_LOOP('',(#534,#535)) ;
#69=FACE_OUTER_BOUND('',#64,.T.) ;
#100=FACE_OUTER_BOUND('',#95,.T.) ;
#131=FACE_OUTER_BOUND('',#126,.T.) ;
#162=FACE_OUTER_BOUND('',#157,.T.) ;
#193=FACE_OUTER_BOUND('',#188,.T.) ;
#224=FACE_OUTER_BOUND('',#219,.T.) ;
#255=FACE_OUTER_BOUND('',#250,.T.) ;
#286=FACE_OUTER_BOUND('',#281,.T.) ;
#317=FACE_OUTER_BOUND('',#312,.T.) ;
#348=FACE_OUTER_BOUND('',#343,.T.) ;
#379=FACE_OUTER_BOUND('',#374,.T.) ;
#396=FACE_OUTER_BOUND('',#391,.T.) ;
#408=FACE_OUTER_BOUND('',#403,.T.) ;
#420=FACE_OUTER_BOUND('',#415,.T.) ;
#432=FACE_OUTER_BOUND('',#427,.T.) ;
#444=FACE_OUTER_BOUND('',#439,.T.) ;
#456=FACE_OUTER_BOUND('',#451,.T.) ;
#468=FACE_OUTER_BOUND('',#463,.T.) ;
#480=FACE_OUTER_BOUND('',#475,.T.) ;
#492=FACE_OUTER_BOUND('',#487,.T.) ;
#504=FACE_OUTER_BOUND('',#499,.T.) ;
#516=FACE_OUTER_BOUND('',#511,.T.) ;
#526=FACE_OUTER_BOUND('',#523,.T.) ;
#536=FACE_OUTER_BOUND('',#533,.T.) ;
#39=LINE('Line',#36,#38) ;
#55=LINE('Line',#52,#54) ;
#110=LINE('Line',#107,#109) ;
#117=LINE('Line',#114,#116) ;
#172=LINE('Line',#169,#171) ;
#179=LINE('Line',#176,#178) ;
#234=LINE('Line',#231,#233) ;
#241=LINE('Line',#238,#240) ;
#296=LINE('Line',#293,#295) ;
#303=LINE('Line',#300,#302) ;
#358=LINE('Line',#355,#357) ;
#365=LINE('Line',#362,#364) ;
#522=PLANE('',#521) ;
#532=PLANE('',#531) ;
#9=PRODUCT_CATEGORY_RELATIONSHIP(' ',' ',#7,#8) ;
#6=PRODUCT_DEFINITION_FORMATION_WITH_SPECIFIED_SOURCE('01.2',' ',#5,.NOT_KNOWN.) ;
#20=SHAPE_DEFINITION_REPRESENTATION(#11,#19) ;
#41=VERTEX_POINT('',#40) ;
#43=VERTEX_POINT('',#42) ;
#50=VERTEX_POINT('',#49) ;
#57=VERTEX_POINT('',#56) ;
#81=VERTEX_POINT('',#80) ;
#88=VERTEX_POINT('',#87) ;
#112=VERTEX_POINT('',#111) ;
#119=VERTEX_POINT('',#118) ;
#143=VERTEX_POINT('',#142) ;
#150=VERTEX_POINT('',#149) ;
#174=VERTEX_POINT('',#173) ;
#181=VERTEX_POINT('',#180) ;
#205=VERTEX_POINT('',#204) ;
#212=VERTEX_POINT('',#211) ;
#236=VERTEX_POINT('',#235) ;
#243=VERTEX_POINT('',#242) ;
#267=VERTEX_POINT('',#266) ;
#274=VERTEX_POINT('',#273) ;
#298=VERTEX_POINT('',#297) ;
#305=VERTEX_POINT('',#304) ;
#329=VERTEX_POINT('',#328) ;
#336=VERTEX_POINT('',#335) ;
#360=VERTEX_POINT('',#359) ;
#367=VERTEX_POINT('',#366) ;
#12=(LENGTH_UNIT()NAMED_UNIT(*)SI_UNIT(.MILLI.,.METRE.)) ;
#13=(NAMED_UNIT(*)PLANE_ANGLE_UNIT()SI_UNIT($,.RADIAN.)) ;
#14=(NAMED_UNIT(*)SI_UNIT($,.STERADIAN.)SOLID_ANGLE_UNIT()) ;
#16=(GEOMETRIC_REPRESENTATION_CONTEXT(3)GLOBAL_UNCERTAINTY_ASSIGNED_CONTEXT((#15))GLOBAL_UNIT_ASSIGNED_CONTEXT((#12,#13,#14))REPRESENTATION_CONTEXT(' ',' ')) ;
ENDSEC;
END-ISO-10303-21;
