ISO-10303-21;
HEADER;
FILE_DESCRIPTION(('CATIA V5 STEP Exchange','CAx-IF Rec.Pracs.--- Model Styling and Organization---1.5--- 2016-08-15','CAx-IF Rec.Pracs.---Supplemental Geometry---1.0---2011-11-01','CAx-IF Rec.Pracs.--- Composite Materials ---1.1---2010-07-15'),'2;1');

FILE_NAME('C:\\Users\\a472897\\Desktop\\CAD till Lars\\16338648.stp','2026-02-13T07:06:42+00:00',('none'),('none'),'CATIA Version 5-6 Release 2021 SP7','CATIA V5 STEP AP214 v2','none');

FILE_SCHEMA(('AUTOMOTIVE_DESIGN { 1 0 10303 214 1 1 1 1 }'));

ENDSEC;
DATA;
#5=PRODUCT('16338648.CATPART','BRACKET','BRACKET',(#2)) ;
#2=PRODUCT_CONTEXT(' ',#1,'mechanical') ;
#1=APPLICATION_CONTEXT('automotive design') ;
#10=PRODUCT_DEFINITION('16338648',' ',#6,#3) ;
#3=PRODUCT_DEFINITION_CONTEXT('part definition',#1,' ') ;
#11=PRODUCT_DEFINITION_SHAPE(' ',' ',#10) ;
#312=MECHANICAL_DESIGN_GEOMETRIC_PRESENTATION_REPRESENTATION(' ',(#29),#16) ;
#19=SHAPE_REPRESENTATION(' ',(#18),#16) ;
#18=AXIS2_PLACEMENT_3D(' ',#17,$,$) ;
#34=AXIS2_PLACEMENT_3D('Cylinder Axis2P3D',#31,#32,#33) ;
#38=AXIS2_PLACEMENT_3D('Circle Axis2P3D',#36,#37,$) ;
#54=AXIS2_PLACEMENT_3D('Circle Axis2P3D',#52,#53,$) ;
#73=AXIS2_PLACEMENT_3D('Circle Axis2P3D',#71,#72,$) ;
#78=AXIS2_PLACEMENT_3D('Circle Axis2P3D',#76,#77,$) ;
#91=AXIS2_PLACEMENT_3D('Plane Axis2P3D',#88,#89,#90) ;
#104=AXIS2_PLACEMENT_3D('Circle Axis2P3D',#102,#103,$) ;
#118=AXIS2_PLACEMENT_3D('Circle Axis2P3D',#116,#117,$) ;
#151=AXIS2_PLACEMENT_3D('Plane Axis2P3D',#148,#149,#150) ;
#182=AXIS2_PLACEMENT_3D('Cylinder Axis2P3D',#179,#180,#181) ;
#186=AXIS2_PLACEMENT_3D('Circle Axis2P3D',#184,#185,$) ;
#206=AXIS2_PLACEMENT_3D('Plane Axis2P3D',#203,#204,#205) ;
#230=AXIS2_PLACEMENT_3D('Cylinder Axis2P3D',#227,#228,#229) ;
#234=AXIS2_PLACEMENT_3D('Circle Axis2P3D',#232,#233,$) ;
#254=AXIS2_PLACEMENT_3D('Plane Axis2P3D',#251,#252,#253) ;
#278=AXIS2_PLACEMENT_3D('Plane Axis2P3D',#275,#276,#277) ;
#295=AXIS2_PLACEMENT_3D('Plane Axis2P3D',#292,#293,#294) ;
#17=CARTESIAN_POINT(' ',(0.,0.,0.)) ;
#31=CARTESIAN_POINT('Axis2P3D Location',(110.,-60.,16.8399999995)) ;
#36=CARTESIAN_POINT('Axis2P3D Location',(110.,-60.,0.)) ;
#40=CARTESIAN_POINT('Vertex',(94.,-60.,0.)) ;
#42=CARTESIAN_POINT('Vertex',(126.,-60.,0.)) ;
#45=CARTESIAN_POINT('Line Origine',(94.,-60.,16.8399999995)) ;
#49=CARTESIAN_POINT('Vertex',(94.,-60.,35.)) ;
#52=CARTESIAN_POINT('Axis2P3D Location',(110.,-60.,35.)) ;
#56=CARTESIAN_POINT('Vertex',(126.,-60.,35.)) ;
#59=CARTESIAN_POINT('Line Origine',(126.,-60.,16.8399999995)) ;
#71=CARTESIAN_POINT('Axis2P3D Location',(110.,-60.,0.)) ;
#76=CARTESIAN_POINT('Axis2P3D Location',(110.,-60.,35.)) ;
#88=CARTESIAN_POINT('Axis2P3D Location',(0.,0.,35.)) ;
#93=CARTESIAN_POINT('Line Origine',(0.,-7.5,35.)) ;
#97=CARTESIAN_POINT('Vertex',(0.,0.,35.)) ;
#99=CARTESIAN_POINT('Vertex',(0.,-15.,35.)) ;
#102=CARTESIAN_POINT('Axis2P3D Location',(3.5527136788E-15,-55.,35.)) ;
#106=CARTESIAN_POINT('Vertex',(32.,-31.,35.)) ;
#109=CARTESIAN_POINT('Line Origine',(53.,-59.,35.)) ;
#113=CARTESIAN_POINT('Vertex',(74.,-87.,35.)) ;
#116=CARTESIAN_POINT('Axis2P3D Location',(110.,-60.,35.)) ;
#120=CARTESIAN_POINT('Vertex',(150.122656158,-39.6242187195,35.)) ;
#123=CARTESIAN_POINT('Line Origine',(140.061328079,-19.8121093597,35.)) ;
#127=CARTESIAN_POINT('Vertex',(130.,-3.5527136788E-15,35.)) ;
#130=CARTESIAN_POINT('Line Origine',(65.,0.,35.)) ;
#148=CARTESIAN_POINT('Axis2P3D Location',(0.,0.,0.)) ;
#153=CARTESIAN_POINT('Line Origine',(0.,0.,17.5)) ;
#157=CARTESIAN_POINT('Vertex',(0.,0.,0.)) ;
#160=CARTESIAN_POINT('Line Origine',(0.,-7.5,0.)) ;
#164=CARTESIAN_POINT('Vertex',(0.,-15.,0.)) ;
#167=CARTESIAN_POINT('Line Origine',(0.,-15.,17.5)) ;
#179=CARTESIAN_POINT('Axis2P3D Location',(3.5527136788E-15,-55.,17.5)) ;
#184=CARTESIAN_POINT('Axis2P3D Location',(3.5527136788E-15,-55.,0.)) ;
#188=CARTESIAN_POINT('Vertex',(32.,-31.,0.)) ;
#191=CARTESIAN_POINT('Line Origine',(32.,-31.,17.5)) ;
#203=CARTESIAN_POINT('Axis2P3D Location',(32.,-31.,0.)) ;
#208=CARTESIAN_POINT('Line Origine',(53.,-59.,0.)) ;
#212=CARTESIAN_POINT('Vertex',(74.,-87.,0.)) ;
#215=CARTESIAN_POINT('Line Origine',(74.,-87.,17.5)) ;
#227=CARTESIAN_POINT('Axis2P3D Location',(110.,-60.,17.5)) ;
#232=CARTESIAN_POINT('Axis2P3D Location',(110.,-60.,0.)) ;
#236=CARTESIAN_POINT('Vertex',(150.122656158,-39.6242187195,0.)) ;
#239=CARTESIAN_POINT('Line Origine',(150.122656158,-39.6242187195,17.5)) ;
#251=CARTESIAN_POINT('Axis2P3D Location',(130.,-3.5527136788E-15,0.)) ;
#256=CARTESIAN_POINT('Line Origine',(140.061328079,-19.8121093597,0.)) ;
#260=CARTESIAN_POINT('Vertex',(130.,-3.5527136788E-15,0.)) ;
#263=CARTESIAN_POINT('Line Origine',(130.,-3.5527136788E-15,17.5)) ;
#275=CARTESIAN_POINT('Axis2P3D Location',(0.,0.,0.)) ;
#280=CARTESIAN_POINT('Line Origine',(65.,0.,0.)) ;
#292=CARTESIAN_POINT('Axis2P3D Location',(0.,0.,0.)) ;
#32=DIRECTION('Axis2P3D Direction',(0.,0.,1.)) ;
#33=DIRECTION('Axis2P3D XDirection',(1.,0.,0.)) ;
#37=DIRECTION('Axis2P3D Direction',(0.,0.,1.)) ;
#46=DIRECTION('Vector Direction',(0.,0.,1.)) ;
#53=DIRECTION('Axis2P3D Direction',(0.,0.,1.)) ;
#60=DIRECTION('Vector Direction',(0.,0.,1.)) ;
#72=DIRECTION('Axis2P3D Direction',(0.,0.,1.)) ;
#77=DIRECTION('Axis2P3D Direction',(0.,0.,1.)) ;
#89=DIRECTION('Axis2P3D Direction',(0.,0.,1.)) ;
#90=DIRECTION('Axis2P3D XDirection',(1.,0.,0.)) ;
#94=DIRECTION('Vector Direction',(0.,-1.,0.)) ;
#103=DIRECTION('Axis2P3D Direction',(0.,0.,1.)) ;
#110=DIRECTION('Vector Direction',(0.6,-0.8,0.)) ;
#117=DIRECTION('Axis2P3D Direction',(0.,0.,1.)) ;
#124=DIRECTION('Vector Direction',(0.452795139567,-0.891614581299,0.)) ;
#131=DIRECTION('Vector Direction',(1.,0.,0.)) ;
#149=DIRECTION('Axis2P3D Direction',(-1.,0.,0.)) ;
#150=DIRECTION('Axis2P3D XDirection',(0.,-1.,0.)) ;
#154=DIRECTION('Vector Direction',(0.,0.,1.)) ;
#161=DIRECTION('Vector Direction',(0.,-1.,0.)) ;
#168=DIRECTION('Vector Direction',(0.,0.,1.)) ;
#180=DIRECTION('Axis2P3D Direction',(0.,0.,1.)) ;
#181=DIRECTION('Axis2P3D XDirection',(0.8,0.6,0.)) ;
#185=DIRECTION('Axis2P3D Direction',(0.,0.,1.)) ;
#192=DIRECTION('Vector Direction',(0.,0.,1.)) ;
#204=DIRECTION('Axis2P3D Direction',(-0.8,-0.6,0.)) ;
#205=DIRECTION('Axis2P3D XDirection',(0.6,-0.8,0.)) ;
#209=DIRECTION('Vector Direction',(0.6,-0.8,0.)) ;
#216=DIRECTION('Vector Direction',(0.,0.,1.)) ;
#228=DIRECTION('Axis2P3D Direction',(0.,0.,1.)) ;
#229=DIRECTION('Axis2P3D XDirection',(-0.8,-0.6,-0.)) ;
#233=DIRECTION('Axis2P3D Direction',(0.,0.,1.)) ;
#240=DIRECTION('Vector Direction',(0.,0.,1.)) ;
#252=DIRECTION('Axis2P3D Direction',(-0.891614581299,-0.452795139567,0.)) ;
#253=DIRECTION('Axis2P3D XDirection',(0.452795139567,-0.891614581299,0.)) ;
#257=DIRECTION('Vector Direction',(0.452795139567,-0.891614581299,0.)) ;
#264=DIRECTION('Vector Direction',(0.,0.,1.)) ;
#276=DIRECTION('Axis2P3D Direction',(0.,-1.,0.)) ;
#277=DIRECTION('Axis2P3D XDirection',(1.,0.,0.)) ;
#281=DIRECTION('Vector Direction',(1.,0.,0.)) ;
#293=DIRECTION('Axis2P3D Direction',(0.,0.,1.)) ;
#294=DIRECTION('Axis2P3D XDirection',(1.,0.,0.)) ;
#8=PRODUCT_RELATED_PRODUCT_CATEGORY('part',$,(#5)) ;
#7=PRODUCT_CATEGORY('part','specification') ;
#29=STYLED_ITEM(' ',(#28),#21) ;
#28=PRESENTATION_STYLE_ASSIGNMENT((#27)) ;
#27=SURFACE_STYLE_USAGE(.BOTH.,#26) ;
#26=SURFACE_SIDE_STYLE(' ',(#25)) ;
#25=SURFACE_STYLE_FILL_AREA(#24) ;
#24=FILL_AREA_STYLE(' ',(#23)) ;
#23=FILL_AREA_STYLE_COLOUR(' ',#22) ;
#47=VECTOR('Line Direction',#46,1.) ;
#61=VECTOR('Line Direction',#60,1.) ;
#95=VECTOR('Line Direction',#94,1.) ;
#111=VECTOR('Line Direction',#110,1.) ;
#125=VECTOR('Line Direction',#124,1.) ;
#132=VECTOR('Line Direction',#131,1.) ;
#155=VECTOR('Line Direction',#154,1.) ;
#162=VECTOR('Line Direction',#161,1.) ;
#169=VECTOR('Line Direction',#168,1.) ;
#193=VECTOR('Line Direction',#192,1.) ;
#210=VECTOR('Line Direction',#209,1.) ;
#217=VECTOR('Line Direction',#216,1.) ;
#241=VECTOR('Line Direction',#240,1.) ;
#258=VECTOR('Line Direction',#257,1.) ;
#265=VECTOR('Line Direction',#264,1.) ;
#282=VECTOR('Line Direction',#281,1.) ;
#15=UNCERTAINTY_MEASURE_WITH_UNIT(LENGTH_MEASURE(0.005),#12,'distance_accuracy_value','CONFUSED CURVE UNCERTAINTY') ;
#311=SHAPE_REPRESENTATION_RELATIONSHIP(' ',' ',#19,#310) ;
#65=ORIENTED_EDGE('',*,*,#44,.F.) ;
#66=ORIENTED_EDGE('',*,*,#51,.F.) ;
#67=ORIENTED_EDGE('',*,*,#58,.T.) ;
#68=ORIENTED_EDGE('',*,*,#63,.T.) ;
#82=ORIENTED_EDGE('',*,*,#75,.F.) ;
#83=ORIENTED_EDGE('',*,*,#63,.F.) ;
#84=ORIENTED_EDGE('',*,*,#80,.T.) ;
#85=ORIENTED_EDGE('',*,*,#51,.T.) ;
#136=ORIENTED_EDGE('',*,*,#101,.T.) ;
#137=ORIENTED_EDGE('',*,*,#108,.T.) ;
#138=ORIENTED_EDGE('',*,*,#115,.T.) ;
#139=ORIENTED_EDGE('',*,*,#122,.T.) ;
#140=ORIENTED_EDGE('',*,*,#129,.T.) ;
#141=ORIENTED_EDGE('',*,*,#134,.T.) ;
#144=ORIENTED_EDGE('',*,*,#80,.F.) ;
#145=ORIENTED_EDGE('',*,*,#58,.F.) ;
#173=ORIENTED_EDGE('',*,*,#159,.F.) ;
#174=ORIENTED_EDGE('',*,*,#166,.T.) ;
#175=ORIENTED_EDGE('',*,*,#171,.T.) ;
#176=ORIENTED_EDGE('',*,*,#101,.F.) ;
#197=ORIENTED_EDGE('',*,*,#171,.F.) ;
#198=ORIENTED_EDGE('',*,*,#190,.T.) ;
#199=ORIENTED_EDGE('',*,*,#195,.T.) ;
#200=ORIENTED_EDGE('',*,*,#108,.F.) ;
#221=ORIENTED_EDGE('',*,*,#195,.F.) ;
#222=ORIENTED_EDGE('',*,*,#214,.T.) ;
#223=ORIENTED_EDGE('',*,*,#219,.T.) ;
#224=ORIENTED_EDGE('',*,*,#115,.F.) ;
#245=ORIENTED_EDGE('',*,*,#219,.F.) ;
#246=ORIENTED_EDGE('',*,*,#238,.T.) ;
#247=ORIENTED_EDGE('',*,*,#243,.T.) ;
#248=ORIENTED_EDGE('',*,*,#122,.F.) ;
#269=ORIENTED_EDGE('',*,*,#243,.F.) ;
#270=ORIENTED_EDGE('',*,*,#262,.T.) ;
#271=ORIENTED_EDGE('',*,*,#267,.T.) ;
#272=ORIENTED_EDGE('',*,*,#129,.F.) ;
#286=ORIENTED_EDGE('',*,*,#267,.F.) ;
#287=ORIENTED_EDGE('',*,*,#284,.T.) ;
#288=ORIENTED_EDGE('',*,*,#159,.T.) ;
#289=ORIENTED_EDGE('',*,*,#134,.F.) ;
#298=ORIENTED_EDGE('',*,*,#284,.F.) ;
#299=ORIENTED_EDGE('',*,*,#262,.F.) ;
#300=ORIENTED_EDGE('',*,*,#238,.F.) ;
#301=ORIENTED_EDGE('',*,*,#214,.F.) ;
#302=ORIENTED_EDGE('',*,*,#190,.F.) ;
#303=ORIENTED_EDGE('',*,*,#166,.F.) ;
#306=ORIENTED_EDGE('',*,*,#44,.T.) ;
#307=ORIENTED_EDGE('',*,*,#75,.T.) ;
#146=FACE_BOUND('',#143,.T.) ;
#308=FACE_BOUND('',#305,.T.) ;
#30=CLOSED_SHELL('Closed Shell',(#70,#87,#147,#178,#202,#226,#250,#274,#291,#309)) ;
#310=ADVANCED_BREP_SHAPE_REPRESENTATION('NONE',(#21),#16) ;
#70=ADVANCED_FACE('PartBody',(#69),#35,.F.) ;
#87=ADVANCED_FACE('PartBody',(#86),#35,.F.) ;
#147=ADVANCED_FACE('PartBody',(#142,#146),#92,.T.) ;
#178=ADVANCED_FACE('PartBody',(#177),#152,.T.) ;
#202=ADVANCED_FACE('PartBody',(#201),#183,.F.) ;
#226=ADVANCED_FACE('PartBody',(#225),#207,.T.) ;
#250=ADVANCED_FACE('PartBody',(#249),#231,.T.) ;
#274=ADVANCED_FACE('PartBody',(#273),#255,.F.) ;
#291=ADVANCED_FACE('PartBody',(#290),#279,.F.) ;
#309=ADVANCED_FACE('PartBody',(#304,#308),#296,.F.) ;
#4=APPLICATION_PROTOCOL_DEFINITION('international standard','automotive_design',2001,#1) ;
#21=MANIFOLD_SOLID_BREP('PartBody',#30) ;
#39=CIRCLE('generated circle',#38,16.) ;
#55=CIRCLE('generated circle',#54,16.) ;
#74=CIRCLE('generated circle',#73,16.) ;
#79=CIRCLE('generated circle',#78,16.) ;
#105=CIRCLE('generated circle',#104,40.) ;
#119=CIRCLE('generated circle',#118,45.) ;
#187=CIRCLE('generated circle',#186,40.) ;
#235=CIRCLE('generated circle',#234,45.) ;
#22=COLOUR_RGB('Colour',0.823529411765,0.823529411765,1.) ;
#35=CYLINDRICAL_SURFACE('generated cylinder',#34,16.) ;
#183=CYLINDRICAL_SURFACE('generated cylinder',#182,40.) ;
#231=CYLINDRICAL_SURFACE('generated cylinder',#230,45.) ;
#44=EDGE_CURVE('',#41,#43,#39,.T.) ;
#51=EDGE_CURVE('',#50,#41,#48,.F.) ;
#58=EDGE_CURVE('',#50,#57,#55,.T.) ;
#63=EDGE_CURVE('',#57,#43,#62,.F.) ;
#75=EDGE_CURVE('',#43,#41,#74,.T.) ;
#80=EDGE_CURVE('',#57,#50,#79,.T.) ;
#101=EDGE_CURVE('',#98,#100,#96,.T.) ;
#108=EDGE_CURVE('',#100,#107,#105,.F.) ;
#115=EDGE_CURVE('',#107,#114,#112,.T.) ;
#122=EDGE_CURVE('',#114,#121,#119,.T.) ;
#129=EDGE_CURVE('',#121,#128,#126,.F.) ;
#134=EDGE_CURVE('',#128,#98,#133,.F.) ;
#159=EDGE_CURVE('',#158,#98,#156,.T.) ;
#166=EDGE_CURVE('',#158,#165,#163,.T.) ;
#171=EDGE_CURVE('',#165,#100,#170,.T.) ;
#190=EDGE_CURVE('',#165,#189,#187,.F.) ;
#195=EDGE_CURVE('',#189,#107,#194,.T.) ;
#214=EDGE_CURVE('',#189,#213,#211,.T.) ;
#219=EDGE_CURVE('',#213,#114,#218,.T.) ;
#238=EDGE_CURVE('',#213,#237,#235,.T.) ;
#243=EDGE_CURVE('',#237,#121,#242,.T.) ;
#262=EDGE_CURVE('',#237,#261,#259,.F.) ;
#267=EDGE_CURVE('',#261,#128,#266,.T.) ;
#284=EDGE_CURVE('',#261,#158,#283,.F.) ;
#64=EDGE_LOOP('',(#65,#66,#67,#68)) ;
#81=EDGE_LOOP('',(#82,#83,#84,#85)) ;
#135=EDGE_LOOP('',(#136,#137,#138,#139,#140,#141)) ;
#143=EDGE_LOOP('',(#144,#145)) ;
#172=EDGE_LOOP('',(#173,#174,#175,#176)) ;
#196=EDGE_LOOP('',(#197,#198,#199,#200)) ;
#220=EDGE_LOOP('',(#221,#222,#223,#224)) ;
#244=EDGE_LOOP('',(#245,#246,#247,#248)) ;
#268=EDGE_LOOP('',(#269,#270,#271,#272)) ;
#285=EDGE_LOOP('',(#286,#287,#288,#289)) ;
#297=EDGE_LOOP('',(#298,#299,#300,#301,#302,#303)) ;
#305=EDGE_LOOP('',(#306,#307)) ;
#69=FACE_OUTER_BOUND('',#64,.T.) ;
#86=FACE_OUTER_BOUND('',#81,.T.) ;
#142=FACE_OUTER_BOUND('',#135,.T.) ;
#177=FACE_OUTER_BOUND('',#172,.T.) ;
#201=FACE_OUTER_BOUND('',#196,.T.) ;
#225=FACE_OUTER_BOUND('',#220,.T.) ;
#249=FACE_OUTER_BOUND('',#244,.T.) ;
#273=FACE_OUTER_BOUND('',#268,.T.) ;
#290=FACE_OUTER_BOUND('',#285,.T.) ;
#304=FACE_OUTER_BOUND('',#297,.T.) ;
#48=LINE('Line',#45,#47) ;
#62=LINE('Line',#59,#61) ;
#96=LINE('Line',#93,#95) ;
#112=LINE('Line',#109,#111) ;
#126=LINE('Line',#123,#125) ;
#133=LINE('Line',#130,#132) ;
#156=LINE('Line',#153,#155) ;
#163=LINE('Line',#160,#162) ;
#170=LINE('Line',#167,#169) ;
#194=LINE('Line',#191,#193) ;
#211=LINE('Line',#208,#210) ;
#218=LINE('Line',#215,#217) ;
#242=LINE('Line',#239,#241) ;
#259=LINE('Line',#256,#258) ;
#266=LINE('Line',#263,#265) ;
#283=LINE('Line',#280,#282) ;
#92=PLANE('',#91) ;
#152=PLANE('',#151) ;
#207=PLANE('',#206) ;
#255=PLANE('',#254) ;
#279=PLANE('',#278) ;
#296=PLANE('',#295) ;
#9=PRODUCT_CATEGORY_RELATIONSHIP(' ',' ',#7,#8) ;
#6=PRODUCT_DEFINITION_FORMATION_WITH_SPECIFIED_SOURCE('03.0',' ',#5,.NOT_KNOWN.) ;
#20=SHAPE_DEFINITION_REPRESENTATION(#11,#19) ;
#41=VERTEX_POINT('',#40) ;
#43=VERTEX_POINT('',#42) ;
#50=VERTEX_POINT('',#49) ;
#57=VERTEX_POINT('',#56) ;
#98=VERTEX_POINT('',#97) ;
#100=VERTEX_POINT('',#99) ;
#107=VERTEX_POINT('',#106) ;
#114=VERTEX_POINT('',#113) ;
#121=VERTEX_POINT('',#120) ;
#128=VERTEX_POINT('',#127) ;
#158=VERTEX_POINT('',#157) ;
#165=VERTEX_POINT('',#164) ;
#189=VERTEX_POINT('',#188) ;
#213=VERTEX_POINT('',#212) ;
#237=VERTEX_POINT('',#236) ;
#261=VERTEX_POINT('',#260) ;
#12=(LENGTH_UNIT()NAMED_UNIT(*)SI_UNIT(.MILLI.,.METRE.)) ;
#13=(NAMED_UNIT(*)PLANE_ANGLE_UNIT()SI_UNIT($,.RADIAN.)) ;
#14=(NAMED_UNIT(*)SI_UNIT($,.STERADIAN.)SOLID_ANGLE_UNIT()) ;
#16=(GEOMETRIC_REPRESENTATION_CONTEXT(3)GLOBAL_UNCERTAINTY_ASSIGNED_CONTEXT((#15))GLOBAL_UNIT_ASSIGNED_CONTEXT((#12,#13,#14))REPRESENTATION_CONTEXT(' ',' ')) ;
ENDSEC;
END-ISO-10303-21;
