ISO-10303-21;
HEADER;
FILE_DESCRIPTION(('CATIA V5 STEP Exchange','CAx-IF Rec.Pracs.--- Model Styling and Organization---1.5--- 2016-08-15','CAx-IF Rec.Pracs.---Supplemental Geometry---1.0---2011-11-01','CAx-IF Rec.Pracs.--- Composite Materials ---1.1---2010-07-15'),'2;1');

FILE_NAME('C:\\Users\\a472897\\Desktop\\CAD till Lars\\4850193_EMS.stp','2026-02-13T07:06:17+00:00',('none'),('none'),'CATIA Version 5-6 Release 2021 SP7','CATIA V5 STEP AP214 v2','none');

FILE_SCHEMA(('AUTOMOTIVE_DESIGN { 1 0 10303 214 1 1 1 1 }'));

ENDSEC;
DATA;
#5=PRODUCT('4850193_EMS.CATPART','NIPPLE','NIPPLE',(#2)) ;
#2=PRODUCT_CONTEXT(' ',#1,'mechanical') ;
#1=APPLICATION_CONTEXT('automotive design') ;
#10=PRODUCT_DEFINITION('4850193',' ',#6,#3) ;
#3=PRODUCT_DEFINITION_CONTEXT('part definition',#1,' ') ;
#11=PRODUCT_DEFINITION_SHAPE(' ',' ',#10) ;
#569=MECHANICAL_DESIGN_GEOMETRIC_PRESENTATION_REPRESENTATION(' ',(#29),#16) ;
#19=SHAPE_REPRESENTATION(' ',(#18),#16) ;
#18=AXIS2_PLACEMENT_3D(' ',#17,$,$) ;
#34=AXIS2_PLACEMENT_3D('Plane Axis2P3D',#31,#32,#33) ;
#74=AXIS2_PLACEMENT_3D('Plane Axis2P3D',#71,#72,#73) ;
#105=AXIS2_PLACEMENT_3D('Plane Axis2P3D',#102,#103,#104) ;
#136=AXIS2_PLACEMENT_3D('Plane Axis2P3D',#133,#134,#135) ;
#167=AXIS2_PLACEMENT_3D('Plane Axis2P3D',#164,#165,#166) ;
#198=AXIS2_PLACEMENT_3D('Plane Axis2P3D',#195,#196,#197) ;
#220=AXIS2_PLACEMENT_3D('Cone Axis2P3D',#217,#218,#219) ;
#233=AXIS2_PLACEMENT_3D('Circle Axis2P3D',#231,#232,$) ;
#247=AXIS2_PLACEMENT_3D('Circle Axis2P3D',#245,#246,$) ;
#260=AXIS2_PLACEMENT_3D('Cone Axis2P3D',#257,#258,#259) ;
#264=AXIS2_PLACEMENT_3D('Circle Axis2P3D',#262,#263,$) ;
#269=AXIS2_PLACEMENT_3D('Circle Axis2P3D',#267,#268,$) ;
#282=AXIS2_PLACEMENT_3D('Cylinder Axis2P3D',#279,#280,#281) ;
#293=AXIS2_PLACEMENT_3D('Circle Axis2P3D',#291,#292,$) ;
#312=AXIS2_PLACEMENT_3D('Circle Axis2P3D',#310,#311,$) ;
#325=AXIS2_PLACEMENT_3D('Cone Axis2P3D',#322,#323,#324) ;
#336=AXIS2_PLACEMENT_3D('Circle Axis2P3D',#334,#335,$) ;
#356=AXIS2_PLACEMENT_3D('Cone Axis2P3D',#353,#354,#355) ;
#360=AXIS2_PLACEMENT_3D('Circle Axis2P3D',#358,#359,$) ;
#373=AXIS2_PLACEMENT_3D('Plane Axis2P3D',#370,#371,#372) ;
#385=AXIS2_PLACEMENT_3D('Circle Axis2P3D',#383,#384,$) ;
#394=AXIS2_PLACEMENT_3D('Circle Axis2P3D',#392,#393,$) ;
#409=AXIS2_PLACEMENT_3D('Cone Axis2P3D',#406,#407,#408) ;
#427=AXIS2_PLACEMENT_3D('Circle Axis2P3D',#425,#426,$) ;
#440=AXIS2_PLACEMENT_3D('Cone Axis2P3D',#437,#438,#439) ;
#444=AXIS2_PLACEMENT_3D('Circle Axis2P3D',#442,#443,$) ;
#457=AXIS2_PLACEMENT_3D('Plane Axis2P3D',#454,#455,#456) ;
#469=AXIS2_PLACEMENT_3D('Circle Axis2P3D',#467,#468,$) ;
#478=AXIS2_PLACEMENT_3D('Circle Axis2P3D',#476,#477,$) ;
#493=AXIS2_PLACEMENT_3D('Cylinder Axis2P3D',#490,#491,#492) ;
#497=AXIS2_PLACEMENT_3D('Circle Axis2P3D',#495,#496,$) ;
#523=AXIS2_PLACEMENT_3D('Circle Axis2P3D',#521,#522,$) ;
#536=AXIS2_PLACEMENT_3D('Cone Axis2P3D',#533,#534,#535) ;
#558=AXIS2_PLACEMENT_3D('Cone Axis2P3D',#555,#556,#557) ;
#17=CARTESIAN_POINT(' ',(0.,0.,0.)) ;
#31=CARTESIAN_POINT('Axis2P3D Location',(-26.,-18.,0.)) ;
#36=CARTESIAN_POINT('Line Origine',(-26.,7.,0.)) ;
#40=CARTESIAN_POINT('Vertex',(-26.,7.,-10.)) ;
#42=CARTESIAN_POINT('Vertex',(-26.,7.,10.)) ;
#45=CARTESIAN_POINT('Line Origine',(-26.,-5.5,-10.)) ;
#49=CARTESIAN_POINT('Vertex',(-26.,-18.,-10.)) ;
#52=CARTESIAN_POINT('Line Origine',(-26.,-18.,0.)) ;
#56=CARTESIAN_POINT('Vertex',(-26.,-18.,10.)) ;
#59=CARTESIAN_POINT('Line Origine',(-26.,-5.5,10.)) ;
#71=CARTESIAN_POINT('Axis2P3D Location',(26.,-18.,0.)) ;
#76=CARTESIAN_POINT('Line Origine',(-3.5527136788E-15,-18.,-10.)) ;
#80=CARTESIAN_POINT('Vertex',(26.,-18.,-10.)) ;
#83=CARTESIAN_POINT('Line Origine',(26.,-18.,0.)) ;
#87=CARTESIAN_POINT('Vertex',(26.,-18.,10.)) ;
#90=CARTESIAN_POINT('Line Origine',(-3.5527136788E-15,-18.,10.)) ;
#102=CARTESIAN_POINT('Axis2P3D Location',(26.,7.,0.)) ;
#107=CARTESIAN_POINT('Line Origine',(26.,-5.5,-10.)) ;
#111=CARTESIAN_POINT('Vertex',(26.,7.,-10.)) ;
#114=CARTESIAN_POINT('Line Origine',(26.,7.,0.)) ;
#118=CARTESIAN_POINT('Vertex',(26.,7.,10.)) ;
#121=CARTESIAN_POINT('Line Origine',(26.,-5.5,10.)) ;
#133=CARTESIAN_POINT('Axis2P3D Location',(21.,12.,0.)) ;
#138=CARTESIAN_POINT('Line Origine',(23.5,9.5,-10.)) ;
#142=CARTESIAN_POINT('Vertex',(21.,12.,-10.)) ;
#145=CARTESIAN_POINT('Line Origine',(21.,12.,0.)) ;
#149=CARTESIAN_POINT('Vertex',(21.,12.,10.)) ;
#152=CARTESIAN_POINT('Line Origine',(23.5,9.5,10.)) ;
#164=CARTESIAN_POINT('Axis2P3D Location',(-21.,12.,0.)) ;
#169=CARTESIAN_POINT('Line Origine',(0.,12.,-10.)) ;
#173=CARTESIAN_POINT('Vertex',(-21.,12.,-10.)) ;
#176=CARTESIAN_POINT('Line Origine',(-21.,12.,0.)) ;
#180=CARTESIAN_POINT('Vertex',(-21.,12.,10.)) ;
#183=CARTESIAN_POINT('Line Origine',(0.,12.,10.)) ;
#195=CARTESIAN_POINT('Axis2P3D Location',(-26.,6.99999999996,0.)) ;
#200=CARTESIAN_POINT('Line Origine',(-23.5,9.49999999998,-10.)) ;
#205=CARTESIAN_POINT('Line Origine',(-23.5,9.49999999998,10.)) ;
#217=CARTESIAN_POINT('Axis2P3D Location',(12.5,-3.1918911958E-13,-4.85)) ;
#222=CARTESIAN_POINT('Line Origine',(16.668517169,-2.27727130837,-9.6)) ;
#226=CARTESIAN_POINT('Vertex',(17.0195501937,-2.46904152381,-10.)) ;
#228=CARTESIAN_POINT('Vertex',(16.3174841442,-2.08550109293,-9.2)) ;
#231=CARTESIAN_POINT('Axis2P3D Location',(12.5,-4.44089209857E-16,-9.2)) ;
#235=CARTESIAN_POINT('Vertex',(8.68251585578,2.08550109293,-9.2)) ;
#238=CARTESIAN_POINT('Line Origine',(8.33148283102,2.27727130837,-9.6)) ;
#242=CARTESIAN_POINT('Vertex',(7.98044988203,2.4690416625,-10.)) ;
#245=CARTESIAN_POINT('Axis2P3D Location',(12.5,5.81756864903E-14,-10.)) ;
#257=CARTESIAN_POINT('Axis2P3D Location',(12.5,-2.78249645547E-15,-4.85)) ;
#262=CARTESIAN_POINT('Axis2P3D Location',(12.5,1.44328993201E-15,-9.2)) ;
#267=CARTESIAN_POINT('Axis2P3D Location',(12.5,2.22044604925E-15,-10.)) ;
#279=CARTESIAN_POINT('Axis2P3D Location',(12.5,0.,9.9)) ;
#284=CARTESIAN_POINT('Line Origine',(16.3174841442,-2.08550109293,0.)) ;
#288=CARTESIAN_POINT('Vertex',(16.3174841442,-2.08550109293,9.2)) ;
#291=CARTESIAN_POINT('Axis2P3D Location',(12.5,0.,9.2)) ;
#295=CARTESIAN_POINT('Vertex',(8.68251585578,2.08550109293,9.2)) ;
#298=CARTESIAN_POINT('Line Origine',(8.68251585578,2.08550109293,0.)) ;
#310=CARTESIAN_POINT('Axis2P3D Location',(12.5,0.,9.2)) ;
#322=CARTESIAN_POINT('Axis2P3D Location',(12.5,-5.84081394361E-14,4.85)) ;
#327=CARTESIAN_POINT('Line Origine',(8.33148313186,2.27727185906,9.6)) ;
#331=CARTESIAN_POINT('Vertex',(7.98044988203,2.4690416625,10.)) ;
#334=CARTESIAN_POINT('Axis2P3D Location',(12.5,1.1990408666E-14,10.)) ;
#338=CARTESIAN_POINT('Vertex',(17.0195501937,-2.46904152381,10.)) ;
#341=CARTESIAN_POINT('Line Origine',(16.668517169,-2.27727130837,9.6)) ;
#353=CARTESIAN_POINT('Axis2P3D Location',(12.5,-3.2665536942E-13,4.85)) ;
#358=CARTESIAN_POINT('Axis2P3D Location',(12.5,5.9285909515E-14,10.)) ;
#370=CARTESIAN_POINT('Axis2P3D Location',(0.,0.,10.)) ;
#383=CARTESIAN_POINT('Axis2P3D Location',(-12.5,-1.35308431126E-14,10.)) ;
#387=CARTESIAN_POINT('Vertex',(-17.0195501937,2.46904152381,10.)) ;
#389=CARTESIAN_POINT('Vertex',(-7.98044988203,-2.4690416625,10.)) ;
#392=CARTESIAN_POINT('Axis2P3D Location',(-12.5,-9.7699626167E-15,10.)) ;
#406=CARTESIAN_POINT('Axis2P3D Location',(-12.5,6.69117539154E-14,4.85)) ;
#411=CARTESIAN_POINT('Line Origine',(-8.33148313186,-2.27727185906,9.6)) ;
#415=CARTESIAN_POINT('Vertex',(-8.68251585578,-2.08550109293,9.2)) ;
#418=CARTESIAN_POINT('Line Origine',(-16.668517169,2.27727130837,9.6)) ;
#422=CARTESIAN_POINT('Vertex',(-16.3174841442,2.08550109293,9.2)) ;
#425=CARTESIAN_POINT('Axis2P3D Location',(-12.5,1.11022302462E-15,9.2)) ;
#437=CARTESIAN_POINT('Axis2P3D Location',(-12.5,3.40921735287E-13,4.85)) ;
#442=CARTESIAN_POINT('Axis2P3D Location',(-12.5,4.44089209859E-16,9.2)) ;
#454=CARTESIAN_POINT('Axis2P3D Location',(0.,0.,-10.)) ;
#467=CARTESIAN_POINT('Axis2P3D Location',(-12.5,-6.43929354283E-15,-10.)) ;
#471=CARTESIAN_POINT('Vertex',(-7.98044988203,-2.4690416625,-10.)) ;
#473=CARTESIAN_POINT('Vertex',(-17.0195501937,2.46904152381,-10.)) ;
#476=CARTESIAN_POINT('Axis2P3D Location',(-12.5,-1.36002320517E-14,-10.)) ;
#490=CARTESIAN_POINT('Axis2P3D Location',(-12.5,0.,9.9)) ;
#495=CARTESIAN_POINT('Axis2P3D Location',(-12.5,0.,-9.2)) ;
#499=CARTESIAN_POINT('Vertex',(-16.3174841442,2.08550109293,-9.2)) ;
#501=CARTESIAN_POINT('Vertex',(-8.68251585578,-2.08550109293,-9.2)) ;
#504=CARTESIAN_POINT('Line Origine',(-16.3174841442,2.08550109293,1.7763568394E-15)) ;
#509=CARTESIAN_POINT('Line Origine',(-8.68251585578,-2.08550109293,1.7763568394E-15)) ;
#521=CARTESIAN_POINT('Axis2P3D Location',(-12.5,0.,-9.2)) ;
#533=CARTESIAN_POINT('Axis2P3D Location',(-12.5,1.1483869411E-14,-4.85)) ;
#538=CARTESIAN_POINT('Line Origine',(-8.33148283102,-2.27727130837,-9.6)) ;
#543=CARTESIAN_POINT('Line Origine',(-16.668517169,2.27727130837,-9.6)) ;
#555=CARTESIAN_POINT('Axis2P3D Location',(-12.5,3.19064219489E-13,-4.85)) ;
#32=DIRECTION('Axis2P3D Direction',(1.,0.,0.)) ;
#33=DIRECTION('Axis2P3D XDirection',(0.,1.,0.)) ;
#37=DIRECTION('Vector Direction',(0.,0.,1.)) ;
#46=DIRECTION('Vector Direction',(0.,1.,0.)) ;
#53=DIRECTION('Vector Direction',(0.,0.,1.)) ;
#60=DIRECTION('Vector Direction',(0.,1.,0.)) ;
#72=DIRECTION('Axis2P3D Direction',(0.,1.,-0.)) ;
#73=DIRECTION('Axis2P3D XDirection',(-1.,0.,0.)) ;
#77=DIRECTION('Vector Direction',(-1.,0.,0.)) ;
#84=DIRECTION('Vector Direction',(0.,0.,1.)) ;
#91=DIRECTION('Vector Direction',(-1.,0.,0.)) ;
#103=DIRECTION('Axis2P3D Direction',(-1.,0.,0.)) ;
#104=DIRECTION('Axis2P3D XDirection',(0.,-1.,0.)) ;
#108=DIRECTION('Vector Direction',(0.,-1.,0.)) ;
#115=DIRECTION('Vector Direction',(0.,0.,1.)) ;
#122=DIRECTION('Vector Direction',(0.,-1.,0.)) ;
#134=DIRECTION('Axis2P3D Direction',(-0.707106781187,-0.707106781187,0.)) ;
#135=DIRECTION('Axis2P3D XDirection',(0.707106781187,-0.707106781187,0.)) ;
#139=DIRECTION('Vector Direction',(0.707106781187,-0.707106781187,0.)) ;
#146=DIRECTION('Vector Direction',(0.,0.,1.)) ;
#153=DIRECTION('Vector Direction',(0.707106781187,-0.707106781187,0.)) ;
#165=DIRECTION('Axis2P3D Direction',(0.,-1.,0.)) ;
#166=DIRECTION('Axis2P3D XDirection',(1.,0.,0.)) ;
#170=DIRECTION('Vector Direction',(1.,0.,0.)) ;
#177=DIRECTION('Vector Direction',(0.,0.,1.)) ;
#184=DIRECTION('Vector Direction',(1.,0.,0.)) ;
#196=DIRECTION('Axis2P3D Direction',(0.707106781187,-0.707106781187,0.)) ;
#197=DIRECTION('Axis2P3D XDirection',(0.707106781187,0.707106781187,0.)) ;
#201=DIRECTION('Vector Direction',(0.707106781187,0.707106781187,0.)) ;
#206=DIRECTION('Vector Direction',(0.707106781187,0.707106781187,0.)) ;
#218=DIRECTION('Axis2P3D Direction',(1.7763568394E-14,7.32747196253E-14,-1.)) ;
#219=DIRECTION('Axis2P3D XDirection',(0.87758256189,-0.479425538604,-1.94929174363E-14)) ;
#223=DIRECTION('Vector Direction',(0.620544580564,-0.339005049421,-0.707106781187)) ;
#232=DIRECTION('Axis2P3D Direction',(-3.49122109574E-14,-6.39063734954E-14,1.)) ;
#239=DIRECTION('Vector Direction',(-0.620544580564,0.339005049421,-0.707106781187)) ;
#246=DIRECTION('Axis2P3D Direction',(-3.49122109574E-14,-6.39063734954E-14,1.)) ;
#258=DIRECTION('Axis2P3D Direction',(-2.88657986403E-14,9.71445146547E-16,-1.)) ;
#259=DIRECTION('Axis2P3D XDirection',(-0.838566306764,0.544799549523,2.47612735001E-14)) ;
#263=DIRECTION('Axis2P3D Direction',(8.12375283741E-15,1.25042420095E-14,1.)) ;
#268=DIRECTION('Axis2P3D Direction',(8.12375283741E-15,1.25042420095E-14,1.)) ;
#280=DIRECTION('Axis2P3D Direction',(0.,-0.,-1.)) ;
#281=DIRECTION('Axis2P3D XDirection',(0.87758256189,-0.479425538604,0.)) ;
#285=DIRECTION('Vector Direction',(0.,0.,-1.)) ;
#292=DIRECTION('Axis2P3D Direction',(0.,-0.,-1.)) ;
#299=DIRECTION('Vector Direction',(0.,0.,-1.)) ;
#311=DIRECTION('Axis2P3D Direction',(0.,-0.,-1.)) ;
#323=DIRECTION('Axis2P3D Direction',(-1.7763568394E-14,1.36696209907E-14,1.)) ;
#324=DIRECTION('Axis2P3D XDirection',(-0.709410282024,0.704795751802,-2.22588043698E-14)) ;
#328=DIRECTION('Vector Direction',(-0.620544535779,0.339005131399,0.707106781187)) ;
#335=DIRECTION('Axis2P3D Direction',(-1.9891576371E-15,-2.00218130815E-15,1.)) ;
#342=DIRECTION('Vector Direction',(0.620544580564,-0.339005049421,0.707106781187)) ;
#354=DIRECTION('Axis2P3D Direction',(1.55431223448E-14,7.49400541622E-14,1.)) ;
#355=DIRECTION('Axis2P3D XDirection',(0.87758256189,-0.479425538604,2.22588043698E-14)) ;
#359=DIRECTION('Axis2P3D Direction',(3.51025093395E-14,6.42547123472E-14,1.)) ;
#371=DIRECTION('Axis2P3D Direction',(0.,0.,1.)) ;
#372=DIRECTION('Axis2P3D XDirection',(1.,0.,0.)) ;
#384=DIRECTION('Axis2P3D Direction',(0.,0.,1.)) ;
#393=DIRECTION('Axis2P3D Direction',(0.,0.,1.)) ;
#407=DIRECTION('Axis2P3D Direction',(1.7763568394E-14,-1.51267887105E-14,1.)) ;
#408=DIRECTION('Axis2P3D XDirection',(0.709410282048,-0.704795751778,-2.33124755826E-14)) ;
#412=DIRECTION('Vector Direction',(0.620544535779,-0.339005131399,0.707106781187)) ;
#419=DIRECTION('Vector Direction',(-0.620544580564,0.339005049421,0.707106781187)) ;
#426=DIRECTION('Axis2P3D Direction',(1.26058929097E-15,1.26884278488E-15,1.)) ;
#438=DIRECTION('Axis2P3D Direction',(-1.55431223448E-14,-7.82707232361E-14,1.)) ;
#439=DIRECTION('Axis2P3D XDirection',(-0.87758256189,0.479425538604,2.3839311189E-14)) ;
#443=DIRECTION('Axis2P3D Direction',(-3.65038400323E-14,-6.68198309745E-14,1.)) ;
#455=DIRECTION('Axis2P3D Direction',(0.,0.,1.)) ;
#456=DIRECTION('Axis2P3D XDirection',(1.,0.,0.)) ;
#468=DIRECTION('Axis2P3D Direction',(0.,0.,1.)) ;
#477=DIRECTION('Axis2P3D Direction',(0.,0.,1.)) ;
#491=DIRECTION('Axis2P3D Direction',(0.,0.,-1.)) ;
#492=DIRECTION('Axis2P3D XDirection',(-0.87758256189,0.479425538604,-0.)) ;
#496=DIRECTION('Axis2P3D Direction',(0.,0.,-1.)) ;
#505=DIRECTION('Vector Direction',(0.,0.,-1.)) ;
#510=DIRECTION('Vector Direction',(0.,0.,-1.)) ;
#522=DIRECTION('Axis2P3D Direction',(0.,0.,-1.)) ;
#534=DIRECTION('Axis2P3D Direction',(3.33066907388E-14,-2.35922392733E-15,-1.)) ;
#535=DIRECTION('Axis2P3D XDirection',(0.838566306777,-0.544799549503,2.92393761544E-14)) ;
#539=DIRECTION('Vector Direction',(0.620544580564,-0.339005049421,-0.707106781187)) ;
#544=DIRECTION('Vector Direction',(-0.620544580564,0.339005049421,-0.707106781187)) ;
#556=DIRECTION('Axis2P3D Direction',(-1.33226762955E-14,-7.35522753814E-14,-1.)) ;
#557=DIRECTION('Axis2P3D XDirection',(-0.87758256189,0.479425538604,-2.35758933858E-14)) ;
#8=PRODUCT_RELATED_PRODUCT_CATEGORY('part',$,(#5)) ;
#7=PRODUCT_CATEGORY('part','specification') ;
#29=STYLED_ITEM(' ',(#28),#21) ;
#28=PRESENTATION_STYLE_ASSIGNMENT((#27)) ;
#27=SURFACE_STYLE_USAGE(.BOTH.,#26) ;
#26=SURFACE_SIDE_STYLE(' ',(#25)) ;
#25=SURFACE_STYLE_FILL_AREA(#24) ;
#24=FILL_AREA_STYLE(' ',(#23)) ;
#23=FILL_AREA_STYLE_COLOUR(' ',#22) ;
#38=VECTOR('Line Direction',#37,1.) ;
#47=VECTOR('Line Direction',#46,1.) ;
#54=VECTOR('Line Direction',#53,1.) ;
#61=VECTOR('Line Direction',#60,1.) ;
#78=VECTOR('Line Direction',#77,1.) ;
#85=VECTOR('Line Direction',#84,1.) ;
#92=VECTOR('Line Direction',#91,1.) ;
#109=VECTOR('Line Direction',#108,1.) ;
#116=VECTOR('Line Direction',#115,1.) ;
#123=VECTOR('Line Direction',#122,1.) ;
#140=VECTOR('Line Direction',#139,1.) ;
#147=VECTOR('Line Direction',#146,1.) ;
#154=VECTOR('Line Direction',#153,1.) ;
#171=VECTOR('Line Direction',#170,1.) ;
#178=VECTOR('Line Direction',#177,1.) ;
#185=VECTOR('Line Direction',#184,1.) ;
#202=VECTOR('Line Direction',#201,1.) ;
#207=VECTOR('Line Direction',#206,1.) ;
#224=VECTOR('Line Direction',#223,1.) ;
#240=VECTOR('Line Direction',#239,1.) ;
#286=VECTOR('Line Direction',#285,1.) ;
#300=VECTOR('Line Direction',#299,1.) ;
#329=VECTOR('Line Direction',#328,1.) ;
#343=VECTOR('Line Direction',#342,1.) ;
#413=VECTOR('Line Direction',#412,1.) ;
#420=VECTOR('Line Direction',#419,1.) ;
#506=VECTOR('Line Direction',#505,1.) ;
#511=VECTOR('Line Direction',#510,1.) ;
#540=VECTOR('Line Direction',#539,1.) ;
#545=VECTOR('Line Direction',#544,1.) ;
#15=UNCERTAINTY_MEASURE_WITH_UNIT(LENGTH_MEASURE(0.005),#12,'distance_accuracy_value','CONFUSED CURVE UNCERTAINTY') ;
#568=SHAPE_REPRESENTATION_RELATIONSHIP(' ',' ',#19,#567) ;
#65=ORIENTED_EDGE('',*,*,#44,.F.) ;
#66=ORIENTED_EDGE('',*,*,#51,.T.) ;
#67=ORIENTED_EDGE('',*,*,#58,.T.) ;
#68=ORIENTED_EDGE('',*,*,#63,.F.) ;
#96=ORIENTED_EDGE('',*,*,#58,.F.) ;
#97=ORIENTED_EDGE('',*,*,#82,.T.) ;
#98=ORIENTED_EDGE('',*,*,#89,.T.) ;
#99=ORIENTED_EDGE('',*,*,#94,.F.) ;
#127=ORIENTED_EDGE('',*,*,#89,.F.) ;
#128=ORIENTED_EDGE('',*,*,#113,.T.) ;
#129=ORIENTED_EDGE('',*,*,#120,.T.) ;
#130=ORIENTED_EDGE('',*,*,#125,.F.) ;
#158=ORIENTED_EDGE('',*,*,#120,.F.) ;
#159=ORIENTED_EDGE('',*,*,#144,.T.) ;
#160=ORIENTED_EDGE('',*,*,#151,.T.) ;
#161=ORIENTED_EDGE('',*,*,#156,.F.) ;
#189=ORIENTED_EDGE('',*,*,#151,.F.) ;
#190=ORIENTED_EDGE('',*,*,#175,.T.) ;
#191=ORIENTED_EDGE('',*,*,#182,.T.) ;
#192=ORIENTED_EDGE('',*,*,#187,.F.) ;
#211=ORIENTED_EDGE('',*,*,#182,.F.) ;
#212=ORIENTED_EDGE('',*,*,#204,.T.) ;
#213=ORIENTED_EDGE('',*,*,#44,.T.) ;
#214=ORIENTED_EDGE('',*,*,#209,.F.) ;
#251=ORIENTED_EDGE('',*,*,#230,.T.) ;
#252=ORIENTED_EDGE('',*,*,#237,.T.) ;
#253=ORIENTED_EDGE('',*,*,#244,.F.) ;
#254=ORIENTED_EDGE('',*,*,#249,.F.) ;
#273=ORIENTED_EDGE('',*,*,#244,.T.) ;
#274=ORIENTED_EDGE('',*,*,#266,.T.) ;
#275=ORIENTED_EDGE('',*,*,#230,.F.) ;
#276=ORIENTED_EDGE('',*,*,#271,.F.) ;
#304=ORIENTED_EDGE('',*,*,#237,.F.) ;
#305=ORIENTED_EDGE('',*,*,#290,.T.) ;
#306=ORIENTED_EDGE('',*,*,#297,.T.) ;
#307=ORIENTED_EDGE('',*,*,#302,.F.) ;
#316=ORIENTED_EDGE('',*,*,#266,.F.) ;
#317=ORIENTED_EDGE('',*,*,#302,.T.) ;
#318=ORIENTED_EDGE('',*,*,#314,.T.) ;
#319=ORIENTED_EDGE('',*,*,#290,.F.) ;
#347=ORIENTED_EDGE('',*,*,#333,.T.) ;
#348=ORIENTED_EDGE('',*,*,#340,.T.) ;
#349=ORIENTED_EDGE('',*,*,#345,.F.) ;
#350=ORIENTED_EDGE('',*,*,#314,.F.) ;
#364=ORIENTED_EDGE('',*,*,#345,.T.) ;
#365=ORIENTED_EDGE('',*,*,#362,.T.) ;
#366=ORIENTED_EDGE('',*,*,#333,.F.) ;
#367=ORIENTED_EDGE('',*,*,#297,.F.) ;
#376=ORIENTED_EDGE('',*,*,#63,.T.) ;
#377=ORIENTED_EDGE('',*,*,#94,.T.) ;
#378=ORIENTED_EDGE('',*,*,#125,.T.) ;
#379=ORIENTED_EDGE('',*,*,#156,.T.) ;
#380=ORIENTED_EDGE('',*,*,#187,.T.) ;
#381=ORIENTED_EDGE('',*,*,#209,.T.) ;
#398=ORIENTED_EDGE('',*,*,#391,.F.) ;
#399=ORIENTED_EDGE('',*,*,#396,.F.) ;
#402=ORIENTED_EDGE('',*,*,#362,.F.) ;
#403=ORIENTED_EDGE('',*,*,#340,.F.) ;
#431=ORIENTED_EDGE('',*,*,#417,.T.) ;
#432=ORIENTED_EDGE('',*,*,#396,.T.) ;
#433=ORIENTED_EDGE('',*,*,#424,.F.) ;
#434=ORIENTED_EDGE('',*,*,#429,.F.) ;
#448=ORIENTED_EDGE('',*,*,#424,.T.) ;
#449=ORIENTED_EDGE('',*,*,#391,.T.) ;
#450=ORIENTED_EDGE('',*,*,#417,.F.) ;
#451=ORIENTED_EDGE('',*,*,#446,.F.) ;
#460=ORIENTED_EDGE('',*,*,#204,.F.) ;
#461=ORIENTED_EDGE('',*,*,#175,.F.) ;
#462=ORIENTED_EDGE('',*,*,#144,.F.) ;
#463=ORIENTED_EDGE('',*,*,#113,.F.) ;
#464=ORIENTED_EDGE('',*,*,#82,.F.) ;
#465=ORIENTED_EDGE('',*,*,#51,.F.) ;
#482=ORIENTED_EDGE('',*,*,#475,.T.) ;
#483=ORIENTED_EDGE('',*,*,#480,.T.) ;
#486=ORIENTED_EDGE('',*,*,#271,.T.) ;
#487=ORIENTED_EDGE('',*,*,#249,.T.) ;
#515=ORIENTED_EDGE('',*,*,#503,.F.) ;
#516=ORIENTED_EDGE('',*,*,#508,.T.) ;
#517=ORIENTED_EDGE('',*,*,#446,.T.) ;
#518=ORIENTED_EDGE('',*,*,#513,.F.) ;
#527=ORIENTED_EDGE('',*,*,#525,.F.) ;
#528=ORIENTED_EDGE('',*,*,#513,.T.) ;
#529=ORIENTED_EDGE('',*,*,#429,.T.) ;
#530=ORIENTED_EDGE('',*,*,#508,.F.) ;
#549=ORIENTED_EDGE('',*,*,#542,.T.) ;
#550=ORIENTED_EDGE('',*,*,#525,.T.) ;
#551=ORIENTED_EDGE('',*,*,#547,.F.) ;
#552=ORIENTED_EDGE('',*,*,#475,.F.) ;
#561=ORIENTED_EDGE('',*,*,#547,.T.) ;
#562=ORIENTED_EDGE('',*,*,#503,.T.) ;
#563=ORIENTED_EDGE('',*,*,#542,.F.) ;
#564=ORIENTED_EDGE('',*,*,#480,.F.) ;
#400=FACE_BOUND('',#397,.T.) ;
#404=FACE_BOUND('',#401,.T.) ;
#484=FACE_BOUND('',#481,.T.) ;
#488=FACE_BOUND('',#485,.T.) ;
#30=CLOSED_SHELL('Closed Shell',(#70,#101,#132,#163,#194,#216,#256,#278,#309,#321,#352,#369,#405,#436,#453,#489,#520,#532,#554,#566)) ;
#567=ADVANCED_BREP_SHAPE_REPRESENTATION('NONE',(#21),#16) ;
#70=ADVANCED_FACE('PartBody',(#69),#35,.F.) ;
#101=ADVANCED_FACE('PartBody',(#100),#75,.F.) ;
#132=ADVANCED_FACE('PartBody',(#131),#106,.F.) ;
#163=ADVANCED_FACE('PartBody',(#162),#137,.F.) ;
#194=ADVANCED_FACE('PartBody',(#193),#168,.F.) ;
#216=ADVANCED_FACE('PartBody',(#215),#199,.F.) ;
#256=ADVANCED_FACE('PartBody',(#255),#221,.F.) ;
#278=ADVANCED_FACE('PartBody',(#277),#261,.F.) ;
#309=ADVANCED_FACE('PartBody',(#308),#283,.F.) ;
#321=ADVANCED_FACE('PartBody',(#320),#283,.F.) ;
#352=ADVANCED_FACE('PartBody',(#351),#326,.F.) ;
#369=ADVANCED_FACE('PartBody',(#368),#357,.F.) ;
#405=ADVANCED_FACE('PartBody',(#382,#400,#404),#374,.T.) ;
#436=ADVANCED_FACE('PartBody',(#435),#410,.F.) ;
#453=ADVANCED_FACE('PartBody',(#452),#441,.F.) ;
#489=ADVANCED_FACE('PartBody',(#466,#484,#488),#458,.F.) ;
#520=ADVANCED_FACE('PartBody',(#519),#494,.F.) ;
#532=ADVANCED_FACE('PartBody',(#531),#494,.F.) ;
#554=ADVANCED_FACE('PartBody',(#553),#537,.F.) ;
#566=ADVANCED_FACE('PartBody',(#565),#559,.F.) ;
#4=APPLICATION_PROTOCOL_DEFINITION('international standard','automotive_design',2001,#1) ;
#21=MANIFOLD_SOLID_BREP('PartBody',#30) ;
#234=CIRCLE('generated circle',#233,4.35) ;
#248=CIRCLE('generated circle',#247,5.15) ;
#265=CIRCLE('generated circle',#264,4.35) ;
#270=CIRCLE('generated circle',#269,5.15) ;
#294=CIRCLE('generated circle',#293,4.35) ;
#313=CIRCLE('generated circle',#312,4.35) ;
#337=CIRCLE('generated circle',#336,5.15) ;
#361=CIRCLE('generated circle',#360,5.15) ;
#386=CIRCLE('generated circle',#385,5.15) ;
#395=CIRCLE('generated circle',#394,5.15) ;
#428=CIRCLE('generated circle',#427,4.35) ;
#445=CIRCLE('generated circle',#444,4.35) ;
#470=CIRCLE('generated circle',#469,5.15) ;
#479=CIRCLE('generated circle',#478,5.15) ;
#498=CIRCLE('generated circle',#497,4.35) ;
#524=CIRCLE('generated circle',#523,4.35) ;
#22=COLOUR_RGB('Colour',0.823529411765,0.823529411765,1.) ;
#221=CONICAL_SURFACE('Cone',#220,0.,0.785398163397) ;
#261=CONICAL_SURFACE('Cone',#260,0.,0.785398163397) ;
#326=CONICAL_SURFACE('Cone',#325,0.,0.785398163397) ;
#357=CONICAL_SURFACE('Cone',#356,0.,0.785398163397) ;
#410=CONICAL_SURFACE('Cone',#409,0.,0.785398163397) ;
#441=CONICAL_SURFACE('Cone',#440,0.,0.785398163397) ;
#537=CONICAL_SURFACE('Cone',#536,0.,0.785398163397) ;
#559=CONICAL_SURFACE('Cone',#558,0.,0.785398163397) ;
#283=CYLINDRICAL_SURFACE('generated cylinder',#282,4.35) ;
#494=CYLINDRICAL_SURFACE('generated cylinder',#493,4.35) ;
#44=EDGE_CURVE('',#41,#43,#39,.T.) ;
#51=EDGE_CURVE('',#41,#50,#48,.F.) ;
#58=EDGE_CURVE('',#50,#57,#55,.T.) ;
#63=EDGE_CURVE('',#43,#57,#62,.F.) ;
#82=EDGE_CURVE('',#50,#81,#79,.F.) ;
#89=EDGE_CURVE('',#81,#88,#86,.T.) ;
#94=EDGE_CURVE('',#57,#88,#93,.F.) ;
#113=EDGE_CURVE('',#81,#112,#110,.F.) ;
#120=EDGE_CURVE('',#112,#119,#117,.T.) ;
#125=EDGE_CURVE('',#88,#119,#124,.F.) ;
#144=EDGE_CURVE('',#112,#143,#141,.F.) ;
#151=EDGE_CURVE('',#143,#150,#148,.T.) ;
#156=EDGE_CURVE('',#119,#150,#155,.F.) ;
#175=EDGE_CURVE('',#143,#174,#172,.F.) ;
#182=EDGE_CURVE('',#174,#181,#179,.T.) ;
#187=EDGE_CURVE('',#150,#181,#186,.F.) ;
#204=EDGE_CURVE('',#174,#41,#203,.F.) ;
#209=EDGE_CURVE('',#181,#43,#208,.F.) ;
#230=EDGE_CURVE('',#227,#229,#225,.F.) ;
#237=EDGE_CURVE('',#229,#236,#234,.T.) ;
#244=EDGE_CURVE('',#243,#236,#241,.F.) ;
#249=EDGE_CURVE('',#227,#243,#248,.T.) ;
#266=EDGE_CURVE('',#236,#229,#265,.T.) ;
#271=EDGE_CURVE('',#243,#227,#270,.T.) ;
#290=EDGE_CURVE('',#229,#289,#287,.F.) ;
#297=EDGE_CURVE('',#289,#296,#294,.F.) ;
#302=EDGE_CURVE('',#236,#296,#301,.F.) ;
#314=EDGE_CURVE('',#296,#289,#313,.F.) ;
#333=EDGE_CURVE('',#296,#332,#330,.T.) ;
#340=EDGE_CURVE('',#332,#339,#337,.T.) ;
#345=EDGE_CURVE('',#289,#339,#344,.T.) ;
#362=EDGE_CURVE('',#339,#332,#361,.T.) ;
#391=EDGE_CURVE('',#388,#390,#386,.T.) ;
#396=EDGE_CURVE('',#390,#388,#395,.T.) ;
#417=EDGE_CURVE('',#416,#390,#414,.T.) ;
#424=EDGE_CURVE('',#423,#388,#421,.T.) ;
#429=EDGE_CURVE('',#416,#423,#428,.T.) ;
#446=EDGE_CURVE('',#423,#416,#445,.T.) ;
#475=EDGE_CURVE('',#472,#474,#470,.T.) ;
#480=EDGE_CURVE('',#474,#472,#479,.T.) ;
#503=EDGE_CURVE('',#500,#502,#498,.F.) ;
#508=EDGE_CURVE('',#500,#423,#507,.F.) ;
#513=EDGE_CURVE('',#502,#416,#512,.F.) ;
#525=EDGE_CURVE('',#502,#500,#524,.F.) ;
#542=EDGE_CURVE('',#472,#502,#541,.F.) ;
#547=EDGE_CURVE('',#474,#500,#546,.F.) ;
#64=EDGE_LOOP('',(#65,#66,#67,#68)) ;
#95=EDGE_LOOP('',(#96,#97,#98,#99)) ;
#126=EDGE_LOOP('',(#127,#128,#129,#130)) ;
#157=EDGE_LOOP('',(#158,#159,#160,#161)) ;
#188=EDGE_LOOP('',(#189,#190,#191,#192)) ;
#210=EDGE_LOOP('',(#211,#212,#213,#214)) ;
#250=EDGE_LOOP('',(#251,#252,#253,#254)) ;
#272=EDGE_LOOP('',(#273,#274,#275,#276)) ;
#303=EDGE_LOOP('',(#304,#305,#306,#307)) ;
#315=EDGE_LOOP('',(#316,#317,#318,#319)) ;
#346=EDGE_LOOP('',(#347,#348,#349,#350)) ;
#363=EDGE_LOOP('',(#364,#365,#366,#367)) ;
#375=EDGE_LOOP('',(#376,#377,#378,#379,#380,#381)) ;
#397=EDGE_LOOP('',(#398,#399)) ;
#401=EDGE_LOOP('',(#402,#403)) ;
#430=EDGE_LOOP('',(#431,#432,#433,#434)) ;
#447=EDGE_LOOP('',(#448,#449,#450,#451)) ;
#459=EDGE_LOOP('',(#460,#461,#462,#463,#464,#465)) ;
#481=EDGE_LOOP('',(#482,#483)) ;
#485=EDGE_LOOP('',(#486,#487)) ;
#514=EDGE_LOOP('',(#515,#516,#517,#518)) ;
#526=EDGE_LOOP('',(#527,#528,#529,#530)) ;
#548=EDGE_LOOP('',(#549,#550,#551,#552)) ;
#560=EDGE_LOOP('',(#561,#562,#563,#564)) ;
#69=FACE_OUTER_BOUND('',#64,.T.) ;
#100=FACE_OUTER_BOUND('',#95,.T.) ;
#131=FACE_OUTER_BOUND('',#126,.T.) ;
#162=FACE_OUTER_BOUND('',#157,.T.) ;
#193=FACE_OUTER_BOUND('',#188,.T.) ;
#215=FACE_OUTER_BOUND('',#210,.T.) ;
#255=FACE_OUTER_BOUND('',#250,.T.) ;
#277=FACE_OUTER_BOUND('',#272,.T.) ;
#308=FACE_OUTER_BOUND('',#303,.T.) ;
#320=FACE_OUTER_BOUND('',#315,.T.) ;
#351=FACE_OUTER_BOUND('',#346,.T.) ;
#368=FACE_OUTER_BOUND('',#363,.T.) ;
#382=FACE_OUTER_BOUND('',#375,.T.) ;
#435=FACE_OUTER_BOUND('',#430,.T.) ;
#452=FACE_OUTER_BOUND('',#447,.T.) ;
#466=FACE_OUTER_BOUND('',#459,.T.) ;
#519=FACE_OUTER_BOUND('',#514,.T.) ;
#531=FACE_OUTER_BOUND('',#526,.T.) ;
#553=FACE_OUTER_BOUND('',#548,.T.) ;
#565=FACE_OUTER_BOUND('',#560,.T.) ;
#39=LINE('Line',#36,#38) ;
#48=LINE('Line',#45,#47) ;
#55=LINE('Line',#52,#54) ;
#62=LINE('Line',#59,#61) ;
#79=LINE('Line',#76,#78) ;
#86=LINE('Line',#83,#85) ;
#93=LINE('Line',#90,#92) ;
#110=LINE('Line',#107,#109) ;
#117=LINE('Line',#114,#116) ;
#124=LINE('Line',#121,#123) ;
#141=LINE('Line',#138,#140) ;
#148=LINE('Line',#145,#147) ;
#155=LINE('Line',#152,#154) ;
#172=LINE('Line',#169,#171) ;
#179=LINE('Line',#176,#178) ;
#186=LINE('Line',#183,#185) ;
#203=LINE('Line',#200,#202) ;
#208=LINE('Line',#205,#207) ;
#225=LINE('Line',#222,#224) ;
#241=LINE('Line',#238,#240) ;
#287=LINE('Line',#284,#286) ;
#301=LINE('Line',#298,#300) ;
#330=LINE('Line',#327,#329) ;
#344=LINE('Line',#341,#343) ;
#414=LINE('Line',#411,#413) ;
#421=LINE('Line',#418,#420) ;
#507=LINE('Line',#504,#506) ;
#512=LINE('Line',#509,#511) ;
#541=LINE('Line',#538,#540) ;
#546=LINE('Line',#543,#545) ;
#35=PLANE('',#34) ;
#75=PLANE('',#74) ;
#106=PLANE('',#105) ;
#137=PLANE('',#136) ;
#168=PLANE('',#167) ;
#199=PLANE('',#198) ;
#374=PLANE('',#373) ;
#458=PLANE('',#457) ;
#9=PRODUCT_CATEGORY_RELATIONSHIP(' ',' ',#7,#8) ;
#6=PRODUCT_DEFINITION_FORMATION_WITH_SPECIFIED_SOURCE('03.0',' ',#5,.NOT_KNOWN.) ;
#20=SHAPE_DEFINITION_REPRESENTATION(#11,#19) ;
#41=VERTEX_POINT('',#40) ;
#43=VERTEX_POINT('',#42) ;
#50=VERTEX_POINT('',#49) ;
#57=VERTEX_POINT('',#56) ;
#81=VERTEX_POINT('',#80) ;
#88=VERTEX_POINT('',#87) ;
#112=VERTEX_POINT('',#111) ;
#119=VERTEX_POINT('',#118) ;
#143=VERTEX_POINT('',#142) ;
#150=VERTEX_POINT('',#149) ;
#174=VERTEX_POINT('',#173) ;
#181=VERTEX_POINT('',#180) ;
#227=VERTEX_POINT('',#226) ;
#229=VERTEX_POINT('',#228) ;
#236=VERTEX_POINT('',#235) ;
#243=VERTEX_POINT('',#242) ;
#289=VERTEX_POINT('',#288) ;
#296=VERTEX_POINT('',#295) ;
#332=VERTEX_POINT('',#331) ;
#339=VERTEX_POINT('',#338) ;
#388=VERTEX_POINT('',#387) ;
#390=VERTEX_POINT('',#389) ;
#416=VERTEX_POINT('',#415) ;
#423=VERTEX_POINT('',#422) ;
#472=VERTEX_POINT('',#471) ;
#474=VERTEX_POINT('',#473) ;
#500=VERTEX_POINT('',#499) ;
#502=VERTEX_POINT('',#501) ;
#12=(LENGTH_UNIT()NAMED_UNIT(*)SI_UNIT(.MILLI.,.METRE.)) ;
#13=(NAMED_UNIT(*)PLANE_ANGLE_UNIT()SI_UNIT($,.RADIAN.)) ;
#14=(NAMED_UNIT(*)SI_UNIT($,.STERADIAN.)SOLID_ANGLE_UNIT()) ;
#16=(GEOMETRIC_REPRESENTATION_CONTEXT(3)GLOBAL_UNCERTAINTY_ASSIGNED_CONTEXT((#15))GLOBAL_UNIT_ASSIGNED_CONTEXT((#12,#13,#14))REPRESENTATION_CONTEXT(' ',' ')) ;
ENDSEC;
END-ISO-10303-21;
