ISO-10303-21;
HEADER;
FILE_DESCRIPTION(('CATIA V5 STEP Exchange','CAx-IF Rec.Pracs.--- Model Styling and Organization---1.5--- 2016-08-15','CAx-IF Rec.Pracs.---Supplemental Geometry---1.0---2011-11-01','CAx-IF Rec.Pracs.--- Composite Materials ---1.1---2010-07-15'),'2;1');

FILE_NAME('C:\\Users\\a472897\\Desktop\\CAD till Lars\\11432713.stp','2026-02-13T07:02:18+00:00',('none'),('none'),'CATIA Version 5-6 Release 2021 SP7','CATIA V5 STEP AP214 v2','none');

FILE_SCHEMA(('AUTOMOTIVE_DESIGN { 1 0 10303 214 1 1 1 1 }'));

ENDSEC;
DATA;
#5=PRODUCT('11432713.CATPART','NUT','WELD NUT',(#2)) ;
#2=PRODUCT_CONTEXT(' ',#1,'mechanical') ;
#1=APPLICATION_CONTEXT('automotive design') ;
#10=PRODUCT_DEFINITION('',' ',#6,#3) ;
#3=PRODUCT_DEFINITION_CONTEXT('part definition',#1,' ') ;
#11=PRODUCT_DEFINITION_SHAPE(' ',' ',#10) ;
#471=MECHANICAL_DESIGN_GEOMETRIC_PRESENTATION_REPRESENTATION(' ',(#29),#16) ;
#19=SHAPE_REPRESENTATION(' ',(#18),#16) ;
#18=AXIS2_PLACEMENT_3D(' ',#17,$,$) ;
#34=AXIS2_PLACEMENT_3D('Plane Axis2P3D',#31,#32,#33) ;
#160=AXIS2_PLACEMENT_3D('Cylinder Axis2P3D',#157,#158,#159) ;
#178=AXIS2_PLACEMENT_3D('Circle Axis2P3D',#176,#177,$) ;
#191=AXIS2_PLACEMENT_3D('Cylinder Axis2P3D',#188,#189,#190) ;
#195=AXIS2_PLACEMENT_3D('Circle Axis2P3D',#193,#194,$) ;
#208=AXIS2_PLACEMENT_3D('Cylinder Axis2P3D',#205,#206,#207) ;
#226=AXIS2_PLACEMENT_3D('Circle Axis2P3D',#224,#225,$) ;
#239=AXIS2_PLACEMENT_3D('Cylinder Axis2P3D',#236,#237,#238) ;
#243=AXIS2_PLACEMENT_3D('Circle Axis2P3D',#241,#242,$) ;
#256=AXIS2_PLACEMENT_3D('Plane Axis2P3D',#253,#254,#255) ;
#320=AXIS2_PLACEMENT_3D('Plane Axis2P3D',#317,#318,#319) ;
#390=AXIS2_PLACEMENT_3D('Cylinder Axis2P3D',#387,#388,#389) ;
#394=AXIS2_PLACEMENT_3D('Circle Axis2P3D',#392,#393,$) ;
#421=AXIS2_PLACEMENT_3D('Cylinder Axis2P3D',#418,#419,#420) ;
#425=AXIS2_PLACEMENT_3D('Circle Axis2P3D',#423,#424,$) ;
#438=AXIS2_PLACEMENT_3D('Cone Axis2P3D',#435,#436,#437) ;
#460=AXIS2_PLACEMENT_3D('Cone Axis2P3D',#457,#458,#459) ;
#17=CARTESIAN_POINT(' ',(0.,0.,0.)) ;
#31=CARTESIAN_POINT('Axis2P3D Location',(0.,0.,0.)) ;
#37=CARTESIAN_POINT('Control Point',(15.,1.33226762955E-15,0.)) ;
#38=CARTESIAN_POINT('Control Point',(15.,-1.51787509213,0.)) ;
#39=CARTESIAN_POINT('Control Point',(14.8080046004,-3.03574973172,0.)) ;
#40=CARTESIAN_POINT('Control Point',(14.4239526163,-4.5213242636,0.)) ;
#41=CARTESIAN_POINT('Control Point',(13.288551659,-7.36282004582,0.)) ;
#42=CARTESIAN_POINT('Control Point',(11.4813923368,-9.83211099837,0.)) ;
#43=CARTESIAN_POINT('Control Point',(10.4254736348,-10.9454228637,0.)) ;
#44=CARTESIAN_POINT('Control Point',(8.05519543695,-12.8806269528,0.)) ;
#45=CARTESIAN_POINT('Control Point',(5.27771471717,-14.1646921621,0.)) ;
#46=CARTESIAN_POINT('Control Point',(3.81452673807,-14.6267620458,0.)) ;
#47=CARTESIAN_POINT('Control Point',(0.803327599098,-15.1707412144,0.)) ;
#48=CARTESIAN_POINT('Control Point',(-2.24847935224,-14.9478131273,0.)) ;
#49=CARTESIAN_POINT('Control Point',(-3.75228355661,-14.6428532153,0.)) ;
#50=CARTESIAN_POINT('Control Point',(-6.64984212977,-13.6592944135,0.)) ;
#51=CARTESIAN_POINT('Control Point',(-9.21123809484,-11.9852354773,0.)) ;
#52=CARTESIAN_POINT('Control Point',(-10.3788276605,-10.9896641697,0.)) ;
#53=CARTESIAN_POINT('Control Point',(-12.4366607842,-8.72503253596,0.)) ;
#54=CARTESIAN_POINT('Control Point',(-13.8657982059,-6.01933690623,0.)) ;
#55=CARTESIAN_POINT('Control Point',(-14.4045926393,-4.58262949371,0.)) ;
#56=CARTESIAN_POINT('Control Point',(-14.8292459903,-2.78218818693,0.)) ;
#57=CARTESIAN_POINT('Control Point',(-14.9747996618,-0.952106404048,0.)) ;
#58=CARTESIAN_POINT('Control Point',(-14.9916077169,-0.634688595197,0.)) ;
#59=CARTESIAN_POINT('Control Point',(-15.,-0.317344287708,0.)) ;
#60=CARTESIAN_POINT('Control Point',(-15.,4.88498130835E-15,0.)) ;
#61=CARTESIAN_POINT('Vertex',(15.,-8.49830834647E-15,0.)) ;
#63=CARTESIAN_POINT('Vertex',(-15.,1.69966166929E-14,0.)) ;
#67=CARTESIAN_POINT('Control Point',(-15.,-2.22044604925E-15,0.)) ;
#68=CARTESIAN_POINT('Control Point',(-15.,1.51787509208,0.)) ;
#69=CARTESIAN_POINT('Control Point',(-14.8080046004,3.03574973162,0.)) ;
#70=CARTESIAN_POINT('Control Point',(-14.4239526163,4.5213242637,0.)) ;
#71=CARTESIAN_POINT('Control Point',(-13.288551659,7.36282004585,0.)) ;
#72=CARTESIAN_POINT('Control Point',(-11.4813923369,9.83211099836,0.)) ;
#73=CARTESIAN_POINT('Control Point',(-10.4254736348,10.9454228637,0.)) ;
#74=CARTESIAN_POINT('Control Point',(-8.05519543698,12.8806269527,0.)) ;
#75=CARTESIAN_POINT('Control Point',(-5.27771471725,14.1646921621,0.)) ;
#76=CARTESIAN_POINT('Control Point',(-3.81452673799,14.6267620458,0.)) ;
#77=CARTESIAN_POINT('Control Point',(-0.803327599122,15.1707412143,0.)) ;
#78=CARTESIAN_POINT('Control Point',(2.24847935209,14.9478131273,0.)) ;
#79=CARTESIAN_POINT('Control Point',(3.75228355676,14.6428532153,0.)) ;
#80=CARTESIAN_POINT('Control Point',(6.64984212981,13.6592944134,0.)) ;
#81=CARTESIAN_POINT('Control Point',(9.21123809481,11.9852354774,0.)) ;
#82=CARTESIAN_POINT('Control Point',(10.3788276606,10.9896641696,0.)) ;
#83=CARTESIAN_POINT('Control Point',(12.4366607843,8.72503253594,0.)) ;
#84=CARTESIAN_POINT('Control Point',(13.865798206,6.01933690618,0.)) ;
#85=CARTESIAN_POINT('Control Point',(14.4045926393,4.58262949375,0.)) ;
#86=CARTESIAN_POINT('Control Point',(14.8292459903,2.78218818696,0.)) ;
#87=CARTESIAN_POINT('Control Point',(14.9747996618,0.952106404048,0.)) ;
#88=CARTESIAN_POINT('Control Point',(14.9916077169,0.634688595197,0.)) ;
#89=CARTESIAN_POINT('Control Point',(15.,0.317344287708,0.)) ;
#90=CARTESIAN_POINT('Control Point',(15.,-7.77156117238E-16,0.)) ;
#97=CARTESIAN_POINT('Control Point',(-10.,-8.881784197E-16,0.)) ;
#98=CARTESIAN_POINT('Control Point',(-10.,0.929507951707,0.)) ;
#99=CARTESIAN_POINT('Control Point',(-9.89200187096,1.85901552158,0.)) ;
#100=CARTESIAN_POINT('Control Point',(-9.67598095153,2.77182885304,0.)) ;
#101=CARTESIAN_POINT('Control Point',(-9.03584317252,4.53047065361,0.)) ;
#102=CARTESIAN_POINT('Control Point',(-8.0095349827,6.09548924134,0.)) ;
#103=CARTESIAN_POINT('Control Point',(-7.40729853952,6.81465853139,0.)) ;
#104=CARTESIAN_POINT('Control Point',(-6.0468254782,8.09984739369,0.)) ;
#105=CARTESIAN_POINT('Control Point',(-4.42792625892,9.03886656359,0.)) ;
#106=CARTESIAN_POINT('Control Point',(-3.56723265761,9.41182733296,0.)) ;
#107=CARTESIAN_POINT('Control Point',(-1.77503491654,9.95092343636,0.)) ;
#108=CARTESIAN_POINT('Control Point',(0.0930222334237,10.0647397683,0.)) ;
#109=CARTESIAN_POINT('Control Point',(1.02958555458,10.0123721534,0.)) ;
#110=CARTESIAN_POINT('Control Point',(2.87331135333,9.69101171371,0.)) ;
#111=CARTESIAN_POINT('Control Point',(4.59423700627,8.95548022437,0.)) ;
#112=CARTESIAN_POINT('Control Point',(5.40798759894,8.48889349071,0.)) ;
#113=CARTESIAN_POINT('Control Point',(6.9121136741,7.375249876,0.)) ;
#114=CARTESIAN_POINT('Control Point',(8.12083085785,5.94640613322,0.)) ;
#115=CARTESIAN_POINT('Control Point',(8.63913977749,5.16458192654,0.)) ;
#116=CARTESIAN_POINT('Control Point',(9.38297394265,3.69556914017,0.)) ;
#117=CARTESIAN_POINT('Control Point',(9.81303538274,2.11093780075,0.)) ;
#118=CARTESIAN_POINT('Control Point',(9.93768011092,1.41217459006,0.)) ;
#119=CARTESIAN_POINT('Control Point',(10.,0.706087184865,0.)) ;
#120=CARTESIAN_POINT('Control Point',(10.,6.66133814775E-16,0.)) ;
#121=CARTESIAN_POINT('Vertex',(-10.,3.21624529935E-15,0.)) ;
#123=CARTESIAN_POINT('Vertex',(10.,0.,0.)) ;
#127=CARTESIAN_POINT('Control Point',(10.,1.7763568394E-15,0.)) ;
#128=CARTESIAN_POINT('Control Point',(10.,-0.9295079517,0.)) ;
#129=CARTESIAN_POINT('Control Point',(9.89200187097,-1.85901552157,0.)) ;
#130=CARTESIAN_POINT('Control Point',(9.67598095153,-2.77182885305,0.)) ;
#131=CARTESIAN_POINT('Control Point',(9.03584317251,-4.53047065363,0.)) ;
#132=CARTESIAN_POINT('Control Point',(8.00953498269,-6.09548924136,0.)) ;
#133=CARTESIAN_POINT('Control Point',(7.40729853952,-6.81465853137,0.)) ;
#134=CARTESIAN_POINT('Control Point',(6.0468254782,-8.09984739371,0.)) ;
#135=CARTESIAN_POINT('Control Point',(4.42792625888,-9.0388665636,0.)) ;
#136=CARTESIAN_POINT('Control Point',(3.56723265765,-9.41182733294,0.)) ;
#137=CARTESIAN_POINT('Control Point',(1.77503491656,-9.95092343636,0.)) ;
#138=CARTESIAN_POINT('Control Point',(-0.0930222334365,-10.0647397683,0.)) ;
#139=CARTESIAN_POINT('Control Point',(-1.02958555458,-10.0123721534,0.)) ;
#140=CARTESIAN_POINT('Control Point',(-2.87331135332,-9.69101171371,0.)) ;
#141=CARTESIAN_POINT('Control Point',(-4.59423700626,-8.95548022437,0.)) ;
#142=CARTESIAN_POINT('Control Point',(-5.40798759895,-8.48889349071,0.)) ;
#143=CARTESIAN_POINT('Control Point',(-6.91211367411,-7.37524987598,0.)) ;
#144=CARTESIAN_POINT('Control Point',(-8.12083085787,-5.9464061332,0.)) ;
#145=CARTESIAN_POINT('Control Point',(-8.63913977746,-5.16458192655,0.)) ;
#146=CARTESIAN_POINT('Control Point',(-9.38297394267,-3.69556914017,0.)) ;
#147=CARTESIAN_POINT('Control Point',(-9.81303538274,-2.11093780071,0.)) ;
#148=CARTESIAN_POINT('Control Point',(-9.93768011092,-1.4121745901,0.)) ;
#149=CARTESIAN_POINT('Control Point',(-10.,-0.706087184885,0.)) ;
#150=CARTESIAN_POINT('Control Point',(-10.,-8.881784197E-16,0.)) ;
#157=CARTESIAN_POINT('Axis2P3D Location',(0.,0.,8.)) ;
#162=CARTESIAN_POINT('Line Origine',(-15.,0.,8.)) ;
#166=CARTESIAN_POINT('Vertex',(-15.,0.,8.)) ;
#169=CARTESIAN_POINT('Line Origine',(15.,-8.49830834647E-15,8.)) ;
#173=CARTESIAN_POINT('Vertex',(15.,-8.49830834647E-15,8.)) ;
#176=CARTESIAN_POINT('Axis2P3D Location',(0.,0.,8.)) ;
#188=CARTESIAN_POINT('Axis2P3D Location',(0.,0.,8.)) ;
#193=CARTESIAN_POINT('Axis2P3D Location',(0.,0.,8.)) ;
#205=CARTESIAN_POINT('Axis2P3D Location',(3.30643715532E-15,0.,-7.)) ;
#210=CARTESIAN_POINT('Line Origine',(-10.,-1.22464679915E-15,-7.)) ;
#214=CARTESIAN_POINT('Vertex',(-10.,-1.22464679915E-15,-7.)) ;
#217=CARTESIAN_POINT('Line Origine',(10.,2.44929359829E-15,-7.)) ;
#221=CARTESIAN_POINT('Vertex',(10.,0.,-7.)) ;
#224=CARTESIAN_POINT('Axis2P3D Location',(3.30643715532E-15,0.,-7.)) ;
#236=CARTESIAN_POINT('Axis2P3D Location',(3.30643715532E-15,0.,-7.)) ;
#241=CARTESIAN_POINT('Axis2P3D Location',(3.30643715532E-15,0.,-7.)) ;
#253=CARTESIAN_POINT('Axis2P3D Location',(0.,0.,8.)) ;
#263=CARTESIAN_POINT('Control Point',(-5.19999999925,-2.22044604925E-16,8.)) ;
#264=CARTESIAN_POINT('Control Point',(-5.19999999925,-0.558561219868,8.)) ;
#265=CARTESIAN_POINT('Control Point',(-5.12500225014,-1.11712192982,8.)) ;
#266=CARTESIAN_POINT('Control Point',(-4.97497681312,-1.66229283187,8.)) ;
#267=CARTESIAN_POINT('Control Point',(-4.53229442344,-2.6988717097,8.)) ;
#268=CARTESIAN_POINT('Control Point',(-3.83185986914,-3.58196306734,8.)) ;
#269=CARTESIAN_POINT('Control Point',(-3.42402924863,-3.97361742689,8.)) ;
#270=CARTESIAN_POINT('Control Point',(-2.51332554351,-4.63775764344,8.)) ;
#271=CARTESIAN_POINT('Control Point',(-1.45968989016,-5.03814597831,8.)) ;
#272=CARTESIAN_POINT('Control Point',(-0.908896624742,-5.16599638725,8.)) ;
#273=CARTESIAN_POINT('Control Point',(0.213379968577,-5.27068024352,8.)) ;
#274=CARTESIAN_POINT('Control Point',(1.3235195582,-5.07561872541,8.)) ;
#275=CARTESIAN_POINT('Control Point',(1.86217556966,-4.90366331516,8.)) ;
#276=CARTESIAN_POINT('Control Point',(2.87999902914,-4.41941249961,8.)) ;
#277=CARTESIAN_POINT('Control Point',(3.73403423907,-3.68382922774,8.)) ;
#278=CARTESIAN_POINT('Control Point',(4.10887085382,-3.26048954337,8.)) ;
#279=CARTESIAN_POINT('Control Point',(4.68841269439,-2.39424018378,8.)) ;
#280=CARTESIAN_POINT('Control Point',(5.03768563776,-1.41500498792,8.)) ;
#281=CARTESIAN_POINT('Control Point',(5.14589912047,-0.948809422907,8.)) ;
#282=CARTESIAN_POINT('Control Point',(5.19999999925,-0.474404527535,8.)) ;
#283=CARTESIAN_POINT('Control Point',(5.19999999925,1.7763568394E-15,8.)) ;
#284=CARTESIAN_POINT('Vertex',(-5.2,-6.36816335557E-16,8.)) ;
#286=CARTESIAN_POINT('Vertex',(5.2,0.,8.)) ;
#290=CARTESIAN_POINT('Control Point',(5.19999999925,0.,8.)) ;
#291=CARTESIAN_POINT('Control Point',(5.19999999925,0.558561219865,8.)) ;
#292=CARTESIAN_POINT('Control Point',(5.12500225014,1.11712192981,8.)) ;
#293=CARTESIAN_POINT('Control Point',(4.97497681312,1.66229283188,8.)) ;
#294=CARTESIAN_POINT('Control Point',(4.53229442344,2.6988717097,8.)) ;
#295=CARTESIAN_POINT('Control Point',(3.83185986914,3.58196306733,8.)) ;
#296=CARTESIAN_POINT('Control Point',(3.42402924862,3.9736174269,8.)) ;
#297=CARTESIAN_POINT('Control Point',(2.51332554351,4.63775764343,8.)) ;
#298=CARTESIAN_POINT('Control Point',(1.45968989017,5.03814597831,8.)) ;
#299=CARTESIAN_POINT('Control Point',(0.90889662473,5.16599638725,8.)) ;
#300=CARTESIAN_POINT('Control Point',(-0.213379968575,5.27068024351,8.)) ;
#301=CARTESIAN_POINT('Control Point',(-1.32351955818,5.07561872542,8.)) ;
#302=CARTESIAN_POINT('Control Point',(-1.86217556967,4.90366331516,8.)) ;
#303=CARTESIAN_POINT('Control Point',(-2.87999902914,4.4194124996,8.)) ;
#304=CARTESIAN_POINT('Control Point',(-3.73403423906,3.68382922775,8.)) ;
#305=CARTESIAN_POINT('Control Point',(-4.10887085383,3.26048954336,8.)) ;
#306=CARTESIAN_POINT('Control Point',(-4.68841269439,2.39424018377,8.)) ;
#307=CARTESIAN_POINT('Control Point',(-5.03768563777,1.41500498792,8.)) ;
#308=CARTESIAN_POINT('Control Point',(-5.14589912047,0.948809422909,8.)) ;
#309=CARTESIAN_POINT('Control Point',(-5.19999999925,0.474404527536,8.)) ;
#310=CARTESIAN_POINT('Control Point',(-5.19999999925,0.,8.)) ;
#317=CARTESIAN_POINT('Axis2P3D Location',(3.30643715532E-15,0.,-7.)) ;
#327=CARTESIAN_POINT('Control Point',(-6.69999999925,-8.881784197E-16,-7.)) ;
#328=CARTESIAN_POINT('Control Point',(-6.69999999925,0.634028821075,-7.)) ;
#329=CARTESIAN_POINT('Control Point',(-6.62500138994,1.26805724639,-7.)) ;
#330=CARTESIAN_POINT('Control Point',(-6.47498586721,1.89028374292,-7.)) ;
#331=CARTESIAN_POINT('Control Point',(-6.0306470599,3.08737788234,-7.)) ;
#332=CARTESIAN_POINT('Control Point',(-5.31927414096,4.14776267554,-7.)) ;
#333=CARTESIAN_POINT('Control Point',(-4.90219083485,4.63326446767,-7.)) ;
#334=CARTESIAN_POINT('Control Point',(-3.96115268595,5.49635111205,-7.)) ;
#335=CARTESIAN_POINT('Control Point',(-2.84471742887,6.11606044344,-7.)) ;
#336=CARTESIAN_POINT('Control Point',(-2.25221404392,6.35815590484,-7.)) ;
#337=CARTESIAN_POINT('Control Point',(-1.0212553521,6.69758491221,-7.)) ;
#338=CARTESIAN_POINT('Control Point',(0.254922601897,6.74044709711,-7.)) ;
#339=CARTESIAN_POINT('Control Point',(0.892652477097,6.68593943759,-7.)) ;
#340=CARTESIAN_POINT('Control Point',(2.14304729121,6.42712645426,-7.)) ;
#341=CARTESIAN_POINT('Control Point',(3.29854727767,5.88372318034,-7.)) ;
#342=CARTESIAN_POINT('Control Point',(3.84137220917,5.54458962879,-7.)) ;
#343=CARTESIAN_POINT('Control Point',(4.83644793257,4.74440486626,-7.)) ;
#344=CARTESIAN_POINT('Control Point',(5.61736643157,3.7341407263,-7.)) ;
#345=CARTESIAN_POINT('Control Point',(5.94600892128,3.18490070946,-7.)) ;
#346=CARTESIAN_POINT('Control Point',(6.37321009274,2.22923635588,-7.)) ;
#347=CARTESIAN_POINT('Control Point',(6.60795530839,1.2134841901,-7.)) ;
#348=CARTESIAN_POINT('Control Point',(6.66931888499,0.811050770636,-7.)) ;
#349=CARTESIAN_POINT('Control Point',(6.69999999925,0.405525304367,-7.)) ;
#350=CARTESIAN_POINT('Control Point',(6.69999999925,-1.33226762955E-15,-7.)) ;
#351=CARTESIAN_POINT('Vertex',(6.7,8.20513355429E-16,-7.)) ;
#353=CARTESIAN_POINT('Vertex',(-6.7,-1.64102671086E-15,-7.)) ;
#357=CARTESIAN_POINT('Control Point',(6.69999999925,2.22044604925E-16,-7.)) ;
#358=CARTESIAN_POINT('Control Point',(6.69999999925,-0.634028821075,-7.)) ;
#359=CARTESIAN_POINT('Control Point',(6.62500138994,-1.26805724639,-7.)) ;
#360=CARTESIAN_POINT('Control Point',(6.47498586721,-1.89028374292,-7.)) ;
#361=CARTESIAN_POINT('Control Point',(6.0306470599,-3.08737788234,-7.)) ;
#362=CARTESIAN_POINT('Control Point',(5.31927414096,-4.14776267554,-7.)) ;
#363=CARTESIAN_POINT('Control Point',(4.90219083485,-4.63326446767,-7.)) ;
#364=CARTESIAN_POINT('Control Point',(3.96115268595,-5.49635111205,-7.)) ;
#365=CARTESIAN_POINT('Control Point',(2.84471742887,-6.11606044344,-7.)) ;
#366=CARTESIAN_POINT('Control Point',(2.25221404392,-6.35815590484,-7.)) ;
#367=CARTESIAN_POINT('Control Point',(1.02125535209,-6.69758491222,-7.)) ;
#368=CARTESIAN_POINT('Control Point',(-0.254922601912,-6.74044709711,-7.)) ;
#369=CARTESIAN_POINT('Control Point',(-0.89265247708,-6.68593943759,-7.)) ;
#370=CARTESIAN_POINT('Control Point',(-2.14304729122,-6.42712645427,-7.)) ;
#371=CARTESIAN_POINT('Control Point',(-3.29854727768,-5.88372318033,-7.)) ;
#372=CARTESIAN_POINT('Control Point',(-3.84137220915,-5.5445896288,-7.)) ;
#373=CARTESIAN_POINT('Control Point',(-4.83644793257,-4.74440486627,-7.)) ;
#374=CARTESIAN_POINT('Control Point',(-5.61736643158,-3.73414072628,-7.)) ;
#375=CARTESIAN_POINT('Control Point',(-5.94600892127,-3.18490070947,-7.)) ;
#376=CARTESIAN_POINT('Control Point',(-6.37321009274,-2.22923635588,-7.)) ;
#377=CARTESIAN_POINT('Control Point',(-6.60795530839,-1.21348419008,-7.)) ;
#378=CARTESIAN_POINT('Control Point',(-6.66931888499,-0.81105077065,-7.)) ;
#379=CARTESIAN_POINT('Control Point',(-6.69999999925,-0.405525304374,-7.)) ;
#380=CARTESIAN_POINT('Control Point',(-6.69999999925,4.4408920985E-16,-7.)) ;
#387=CARTESIAN_POINT('Axis2P3D Location',(0.,0.,-37.)) ;
#392=CARTESIAN_POINT('Axis2P3D Location',(0.,0.,-5.5)) ;
#396=CARTESIAN_POINT('Vertex',(5.2,0.,-5.5)) ;
#398=CARTESIAN_POINT('Vertex',(-5.2,-6.36816335557E-16,-5.5)) ;
#401=CARTESIAN_POINT('Line Origine',(-5.2,-6.36816335557E-16,-37.)) ;
#406=CARTESIAN_POINT('Line Origine',(5.2,0.,-37.)) ;
#418=CARTESIAN_POINT('Axis2P3D Location',(0.,0.,-37.)) ;
#423=CARTESIAN_POINT('Axis2P3D Location',(0.,0.,-5.5)) ;
#435=CARTESIAN_POINT('Axis2P3D Location',(0.,0.,-5.5)) ;
#440=CARTESIAN_POINT('Line Origine',(353555.990593,4.32981212199E-11,-353556.290593)) ;
#445=CARTESIAN_POINT('Line Origine',(-353555.990593,0.,-353556.290593)) ;
#457=CARTESIAN_POINT('Axis2P3D Location',(0.,0.,-5.5)) ;
#32=DIRECTION('Axis2P3D Direction',(0.,0.,-1.)) ;
#33=DIRECTION('Axis2P3D XDirection',(-1.,0.,0.)) ;
#158=DIRECTION('Axis2P3D Direction',(0.,0.,1.)) ;
#159=DIRECTION('Axis2P3D XDirection',(-1.,0.,0.)) ;
#163=DIRECTION('Vector Direction',(0.,0.,1.)) ;
#170=DIRECTION('Vector Direction',(0.,0.,1.)) ;
#177=DIRECTION('Axis2P3D Direction',(0.,0.,1.)) ;
#189=DIRECTION('Axis2P3D Direction',(0.,0.,1.)) ;
#190=DIRECTION('Axis2P3D XDirection',(1.,-5.66553889765E-16,0.)) ;
#194=DIRECTION('Axis2P3D Direction',(0.,0.,1.)) ;
#206=DIRECTION('Axis2P3D Direction',(0.,0.,-1.)) ;
#207=DIRECTION('Axis2P3D XDirection',(-1.,-1.22464679915E-16,0.)) ;
#211=DIRECTION('Vector Direction',(0.,0.,-1.)) ;
#218=DIRECTION('Vector Direction',(0.,0.,-1.)) ;
#225=DIRECTION('Axis2P3D Direction',(0.,0.,-1.)) ;
#237=DIRECTION('Axis2P3D Direction',(0.,0.,-1.)) ;
#238=DIRECTION('Axis2P3D XDirection',(1.,0.,0.)) ;
#242=DIRECTION('Axis2P3D Direction',(0.,0.,-1.)) ;
#254=DIRECTION('Axis2P3D Direction',(0.,0.,-1.)) ;
#255=DIRECTION('Axis2P3D XDirection',(-1.,0.,0.)) ;
#318=DIRECTION('Axis2P3D Direction',(0.,0.,-1.)) ;
#319=DIRECTION('Axis2P3D XDirection',(-1.,0.,0.)) ;
#388=DIRECTION('Axis2P3D Direction',(0.,0.,-1.)) ;
#389=DIRECTION('Axis2P3D XDirection',(1.,0.,0.)) ;
#393=DIRECTION('Axis2P3D Direction',(0.,0.,-1.)) ;
#402=DIRECTION('Vector Direction',(0.,0.,-1.)) ;
#407=DIRECTION('Vector Direction',(0.,0.,-1.)) ;
#419=DIRECTION('Axis2P3D Direction',(0.,0.,-1.)) ;
#420=DIRECTION('Axis2P3D XDirection',(-1.,-1.22464679915E-16,0.)) ;
#424=DIRECTION('Axis2P3D Direction',(0.,0.,-1.)) ;
#436=DIRECTION('Axis2P3D Direction',(0.,0.,-1.)) ;
#437=DIRECTION('Axis2P3D XDirection',(-1.,0.,0.)) ;
#441=DIRECTION('Vector Direction',(0.707106781187,8.65956056235E-17,-0.707106781187)) ;
#446=DIRECTION('Vector Direction',(-0.707106781187,0.,-0.707106781187)) ;
#458=DIRECTION('Axis2P3D Direction',(0.,0.,-1.)) ;
#459=DIRECTION('Axis2P3D XDirection',(1.,1.22464679915E-16,0.)) ;
#8=PRODUCT_RELATED_PRODUCT_CATEGORY('part',$,(#5)) ;
#7=PRODUCT_CATEGORY('part','specification') ;
#29=STYLED_ITEM(' ',(#28),#21) ;
#28=PRESENTATION_STYLE_ASSIGNMENT((#27)) ;
#27=SURFACE_STYLE_USAGE(.BOTH.,#26) ;
#26=SURFACE_SIDE_STYLE(' ',(#25)) ;
#25=SURFACE_STYLE_FILL_AREA(#24) ;
#24=FILL_AREA_STYLE(' ',(#23)) ;
#23=FILL_AREA_STYLE_COLOUR(' ',#22) ;
#164=VECTOR('Line Direction',#163,1.) ;
#171=VECTOR('Line Direction',#170,1.) ;
#212=VECTOR('Line Direction',#211,1.) ;
#219=VECTOR('Line Direction',#218,1.) ;
#403=VECTOR('Line Direction',#402,1.) ;
#408=VECTOR('Line Direction',#407,1.) ;
#442=VECTOR('Line Direction',#441,1.) ;
#447=VECTOR('Line Direction',#446,1.) ;
#15=UNCERTAINTY_MEASURE_WITH_UNIT(LENGTH_MEASURE(0.005),#12,'distance_accuracy_value','CONFUSED CURVE UNCERTAINTY') ;
#470=SHAPE_REPRESENTATION_RELATIONSHIP(' ',' ',#19,#469) ;
#93=ORIENTED_EDGE('',*,*,#65,.T.) ;
#94=ORIENTED_EDGE('',*,*,#91,.T.) ;
#153=ORIENTED_EDGE('',*,*,#125,.F.) ;
#154=ORIENTED_EDGE('',*,*,#151,.F.) ;
#182=ORIENTED_EDGE('',*,*,#168,.T.) ;
#183=ORIENTED_EDGE('',*,*,#65,.F.) ;
#184=ORIENTED_EDGE('',*,*,#175,.T.) ;
#185=ORIENTED_EDGE('',*,*,#180,.T.) ;
#199=ORIENTED_EDGE('',*,*,#175,.F.) ;
#200=ORIENTED_EDGE('',*,*,#91,.F.) ;
#201=ORIENTED_EDGE('',*,*,#168,.F.) ;
#202=ORIENTED_EDGE('',*,*,#197,.T.) ;
#230=ORIENTED_EDGE('',*,*,#216,.F.) ;
#231=ORIENTED_EDGE('',*,*,#125,.T.) ;
#232=ORIENTED_EDGE('',*,*,#223,.F.) ;
#233=ORIENTED_EDGE('',*,*,#228,.F.) ;
#247=ORIENTED_EDGE('',*,*,#223,.T.) ;
#248=ORIENTED_EDGE('',*,*,#151,.T.) ;
#249=ORIENTED_EDGE('',*,*,#216,.T.) ;
#250=ORIENTED_EDGE('',*,*,#245,.F.) ;
#259=ORIENTED_EDGE('',*,*,#197,.F.) ;
#260=ORIENTED_EDGE('',*,*,#180,.F.) ;
#313=ORIENTED_EDGE('',*,*,#288,.F.) ;
#314=ORIENTED_EDGE('',*,*,#311,.F.) ;
#323=ORIENTED_EDGE('',*,*,#245,.T.) ;
#324=ORIENTED_EDGE('',*,*,#228,.T.) ;
#383=ORIENTED_EDGE('',*,*,#355,.T.) ;
#384=ORIENTED_EDGE('',*,*,#381,.T.) ;
#412=ORIENTED_EDGE('',*,*,#400,.T.) ;
#413=ORIENTED_EDGE('',*,*,#405,.F.) ;
#414=ORIENTED_EDGE('',*,*,#288,.T.) ;
#415=ORIENTED_EDGE('',*,*,#410,.F.) ;
#429=ORIENTED_EDGE('',*,*,#427,.T.) ;
#430=ORIENTED_EDGE('',*,*,#410,.T.) ;
#431=ORIENTED_EDGE('',*,*,#311,.T.) ;
#432=ORIENTED_EDGE('',*,*,#405,.T.) ;
#451=ORIENTED_EDGE('',*,*,#355,.F.) ;
#452=ORIENTED_EDGE('',*,*,#444,.F.) ;
#453=ORIENTED_EDGE('',*,*,#427,.F.) ;
#454=ORIENTED_EDGE('',*,*,#449,.F.) ;
#463=ORIENTED_EDGE('',*,*,#381,.F.) ;
#464=ORIENTED_EDGE('',*,*,#449,.T.) ;
#465=ORIENTED_EDGE('',*,*,#400,.F.) ;
#466=ORIENTED_EDGE('',*,*,#444,.T.) ;
#155=FACE_BOUND('',#152,.T.) ;
#315=FACE_BOUND('',#312,.T.) ;
#385=FACE_BOUND('',#382,.T.) ;
#30=CLOSED_SHELL('Closed Shell',(#156,#187,#204,#235,#252,#316,#386,#417,#434,#456,#468)) ;
#469=ADVANCED_BREP_SHAPE_REPRESENTATION('NONE',(#21),#16) ;
#156=ADVANCED_FACE('PartBody',(#95,#155),#35,.T.) ;
#187=ADVANCED_FACE('PartBody',(#186),#161,.T.) ;
#204=ADVANCED_FACE('PartBody',(#203),#192,.T.) ;
#235=ADVANCED_FACE('PartBody',(#234),#209,.T.) ;
#252=ADVANCED_FACE('PartBody',(#251),#240,.T.) ;
#316=ADVANCED_FACE('PartBody',(#261,#315),#257,.F.) ;
#386=ADVANCED_FACE('PartBody',(#325,#385),#321,.T.) ;
#417=ADVANCED_FACE('PartBody',(#416),#391,.F.) ;
#434=ADVANCED_FACE('PartBody',(#433),#422,.F.) ;
#456=ADVANCED_FACE('PartBody',(#455),#439,.F.) ;
#468=ADVANCED_FACE('PartBody',(#467),#461,.F.) ;
#4=APPLICATION_PROTOCOL_DEFINITION('international standard','automotive_design',2001,#1) ;
#36=B_SPLINE_CURVE_WITH_KNOTS('',5,(#37,#38,#39,#40,#41,#42,#43,#44,#45,#46,#47,#48,#49,#50,#51,#52,#53,#54,#55,#56,#57,#58,#59,#60),.UNSPECIFIED.,.F.,.U.,(6,3,3,3,3,3,3,6),(0.,10.7329977064,21.4659954173,32.1989931089,42.9319908078,53.664988512,64.3979862104,66.6419491885),.UNSPECIFIED.) ;
#66=B_SPLINE_CURVE_WITH_KNOTS('',5,(#67,#68,#69,#70,#71,#72,#73,#74,#75,#76,#77,#78,#79,#80,#81,#82,#83,#84,#85,#86,#87,#88,#89,#90),.UNSPECIFIED.,.F.,.U.,(6,3,3,3,3,3,3,6),(0.,10.732997706,21.4659954169,32.1989931082,42.9319908065,53.6649885106,64.3979862092,66.6419491873),.UNSPECIFIED.) ;
#96=B_SPLINE_CURVE_WITH_KNOTS('',5,(#97,#98,#99,#100,#101,#102,#103,#104,#105,#106,#107,#108,#109,#110,#111,#112,#113,#114,#115,#116,#117,#118,#119,#120),.UNSPECIFIED.,.F.,.U.,(6,3,3,3,3,3,3,6),(0.,6.57261375819,13.1452275293,19.7178412937,26.2904550452,32.8630688125,39.4356825587,44.4284729239),.UNSPECIFIED.) ;
#126=B_SPLINE_CURVE_WITH_KNOTS('',5,(#127,#128,#129,#130,#131,#132,#133,#134,#135,#136,#137,#138,#139,#140,#141,#142,#143,#144,#145,#146,#147,#148,#149,#150),.UNSPECIFIED.,.F.,.U.,(6,3,3,3,3,3,3,6),(0.,6.57261375814,13.1452275293,19.7178412939,26.2904550454,32.8630688127,39.4356825589,44.4284729243),.UNSPECIFIED.) ;
#262=B_SPLINE_CURVE_WITH_KNOTS('',5,(#263,#264,#265,#266,#267,#268,#269,#270,#271,#272,#273,#274,#275,#276,#277,#278,#279,#280,#281,#282,#283),.UNSPECIFIED.,.F.,.U.,(6,3,3,3,3,3,6),(0.,3.94962426277,7.89924850902,11.848872765,15.7984969983,19.7481212096,23.102667794),.UNSPECIFIED.) ;
#289=B_SPLINE_CURVE_WITH_KNOTS('',5,(#290,#291,#292,#293,#294,#295,#296,#297,#298,#299,#300,#301,#302,#303,#304,#305,#306,#307,#308,#309,#310),.UNSPECIFIED.,.F.,.U.,(6,3,3,3,3,3,6),(0.,3.94962426274,7.89924850896,11.8488727649,15.7984969981,19.7481212094,23.1026677938),.UNSPECIFIED.) ;
#326=B_SPLINE_CURVE_WITH_KNOTS('',5,(#327,#328,#329,#330,#331,#332,#333,#334,#335,#336,#337,#338,#339,#340,#341,#342,#343,#344,#345,#346,#347,#348,#349,#350),.UNSPECIFIED.,.F.,.U.,(6,3,3,3,3,3,3,6),(0.,4.4832607885,8.96652157013,13.4497823563,17.933043134,22.416303919,26.899564691,29.7670616176),.UNSPECIFIED.) ;
#356=B_SPLINE_CURVE_WITH_KNOTS('',5,(#357,#358,#359,#360,#361,#362,#363,#364,#365,#366,#367,#368,#369,#370,#371,#372,#373,#374,#375,#376,#377,#378,#379,#380),.UNSPECIFIED.,.F.,.U.,(6,3,3,3,3,3,3,6),(0.,4.4832607885,8.96652157012,13.4497823563,17.9330431341,22.4163039192,26.8995646912,29.7670616178),.UNSPECIFIED.) ;
#21=MANIFOLD_SOLID_BREP('PartBody',#30) ;
#179=CIRCLE('generated circle',#178,15.) ;
#196=CIRCLE('generated circle',#195,15.) ;
#227=CIRCLE('generated circle',#226,10.) ;
#244=CIRCLE('generated circle',#243,10.) ;
#395=CIRCLE('generated circle',#394,5.2) ;
#426=CIRCLE('generated circle',#425,5.2) ;
#22=COLOUR_RGB('Colour',0.823529411765,0.823529411765,1.) ;
#439=CONICAL_SURFACE('Cone',#438,5.2,0.785398163397) ;
#461=CONICAL_SURFACE('Cone',#460,5.2,0.785398163397) ;
#161=CYLINDRICAL_SURFACE('generated cylinder',#160,15.) ;
#192=CYLINDRICAL_SURFACE('generated cylinder',#191,15.) ;
#209=CYLINDRICAL_SURFACE('generated cylinder',#208,10.) ;
#240=CYLINDRICAL_SURFACE('generated cylinder',#239,10.) ;
#391=CYLINDRICAL_SURFACE('generated cylinder',#390,5.2) ;
#422=CYLINDRICAL_SURFACE('generated cylinder',#421,5.2) ;
#65=EDGE_CURVE('',#62,#64,#36,.T.) ;
#91=EDGE_CURVE('',#64,#62,#66,.T.) ;
#125=EDGE_CURVE('',#122,#124,#96,.T.) ;
#151=EDGE_CURVE('',#124,#122,#126,.T.) ;
#168=EDGE_CURVE('',#167,#64,#165,.F.) ;
#175=EDGE_CURVE('',#62,#174,#172,.T.) ;
#180=EDGE_CURVE('',#174,#167,#179,.F.) ;
#197=EDGE_CURVE('',#167,#174,#196,.F.) ;
#216=EDGE_CURVE('',#122,#215,#213,.T.) ;
#223=EDGE_CURVE('',#222,#124,#220,.F.) ;
#228=EDGE_CURVE('',#215,#222,#227,.T.) ;
#245=EDGE_CURVE('',#222,#215,#244,.T.) ;
#288=EDGE_CURVE('',#285,#287,#262,.T.) ;
#311=EDGE_CURVE('',#287,#285,#289,.T.) ;
#355=EDGE_CURVE('',#352,#354,#326,.F.) ;
#381=EDGE_CURVE('',#354,#352,#356,.F.) ;
#400=EDGE_CURVE('',#397,#399,#395,.T.) ;
#405=EDGE_CURVE('',#285,#399,#404,.T.) ;
#410=EDGE_CURVE('',#397,#287,#409,.F.) ;
#427=EDGE_CURVE('',#399,#397,#426,.T.) ;
#444=EDGE_CURVE('',#397,#352,#443,.T.) ;
#449=EDGE_CURVE('',#354,#399,#448,.F.) ;
#92=EDGE_LOOP('',(#93,#94)) ;
#152=EDGE_LOOP('',(#153,#154)) ;
#181=EDGE_LOOP('',(#182,#183,#184,#185)) ;
#198=EDGE_LOOP('',(#199,#200,#201,#202)) ;
#229=EDGE_LOOP('',(#230,#231,#232,#233)) ;
#246=EDGE_LOOP('',(#247,#248,#249,#250)) ;
#258=EDGE_LOOP('',(#259,#260)) ;
#312=EDGE_LOOP('',(#313,#314)) ;
#322=EDGE_LOOP('',(#323,#324)) ;
#382=EDGE_LOOP('',(#383,#384)) ;
#411=EDGE_LOOP('',(#412,#413,#414,#415)) ;
#428=EDGE_LOOP('',(#429,#430,#431,#432)) ;
#450=EDGE_LOOP('',(#451,#452,#453,#454)) ;
#462=EDGE_LOOP('',(#463,#464,#465,#466)) ;
#95=FACE_OUTER_BOUND('',#92,.T.) ;
#186=FACE_OUTER_BOUND('',#181,.T.) ;
#203=FACE_OUTER_BOUND('',#198,.T.) ;
#234=FACE_OUTER_BOUND('',#229,.T.) ;
#251=FACE_OUTER_BOUND('',#246,.T.) ;
#261=FACE_OUTER_BOUND('',#258,.T.) ;
#325=FACE_OUTER_BOUND('',#322,.T.) ;
#416=FACE_OUTER_BOUND('',#411,.T.) ;
#433=FACE_OUTER_BOUND('',#428,.T.) ;
#455=FACE_OUTER_BOUND('',#450,.T.) ;
#467=FACE_OUTER_BOUND('',#462,.T.) ;
#165=LINE('Line',#162,#164) ;
#172=LINE('Line',#169,#171) ;
#213=LINE('Line',#210,#212) ;
#220=LINE('Line',#217,#219) ;
#404=LINE('Line',#401,#403) ;
#409=LINE('Line',#406,#408) ;
#443=LINE('Line',#440,#442) ;
#448=LINE('Line',#445,#447) ;
#35=PLANE('',#34) ;
#257=PLANE('',#256) ;
#321=PLANE('',#320) ;
#9=PRODUCT_CATEGORY_RELATIONSHIP(' ',' ',#7,#8) ;
#6=PRODUCT_DEFINITION_FORMATION_WITH_SPECIFIED_SOURCE('01.0',' ',#5,.NOT_KNOWN.) ;
#20=SHAPE_DEFINITION_REPRESENTATION(#11,#19) ;
#62=VERTEX_POINT('',#61) ;
#64=VERTEX_POINT('',#63) ;
#122=VERTEX_POINT('',#121) ;
#124=VERTEX_POINT('',#123) ;
#167=VERTEX_POINT('',#166) ;
#174=VERTEX_POINT('',#173) ;
#215=VERTEX_POINT('',#214) ;
#222=VERTEX_POINT('',#221) ;
#285=VERTEX_POINT('',#284) ;
#287=VERTEX_POINT('',#286) ;
#352=VERTEX_POINT('',#351) ;
#354=VERTEX_POINT('',#353) ;
#397=VERTEX_POINT('',#396) ;
#399=VERTEX_POINT('',#398) ;
#12=(LENGTH_UNIT()NAMED_UNIT(*)SI_UNIT(.MILLI.,.METRE.)) ;
#13=(NAMED_UNIT(*)PLANE_ANGLE_UNIT()SI_UNIT($,.RADIAN.)) ;
#14=(NAMED_UNIT(*)SI_UNIT($,.STERADIAN.)SOLID_ANGLE_UNIT()) ;
#16=(GEOMETRIC_REPRESENTATION_CONTEXT(3)GLOBAL_UNCERTAINTY_ASSIGNED_CONTEXT((#15))GLOBAL_UNIT_ASSIGNED_CONTEXT((#12,#13,#14))REPRESENTATION_CONTEXT(' ',' ')) ;
ENDSEC;
END-ISO-10303-21;
