ISO-10303-21;
HEADER;
FILE_DESCRIPTION(('CATIA V5 STEP Exchange','CAx-IF Rec.Pracs.--- Model Styling and Organization---1.5--- 2016-08-15','CAx-IF Rec.Pracs.---Supplemental Geometry---1.0---2011-11-01','CAx-IF Rec.Pracs.--- Composite Materials ---1.1---2010-07-15'),'2;1');

FILE_NAME('C:\\Users\\a472897\\Desktop\\CAD till Lars\\15110037.stp','2026-02-13T07:05:39+00:00',('none'),('none'),'CATIA Version 5-6 Release 2021 SP7','CATIA V5 STEP AP214 v2','none');

FILE_SCHEMA(('AUTOMOTIVE_DESIGN { 1 0 10303 214 1 1 1 1 }'));

ENDSEC;
DATA;
#5=PRODUCT('15110037.CATPART','BRACKET','BRACKET',(#2)) ;
#2=PRODUCT_CONTEXT(' ',#1,'mechanical') ;
#1=APPLICATION_CONTEXT('automotive design') ;
#10=PRODUCT_DEFINITION('15110117',' ',#6,#3) ;
#3=PRODUCT_DEFINITION_CONTEXT('part definition',#1,' ') ;
#11=PRODUCT_DEFINITION_SHAPE(' ',' ',#10) ;
#311=MECHANICAL_DESIGN_GEOMETRIC_PRESENTATION_REPRESENTATION(' ',(#29),#16) ;
#19=SHAPE_REPRESENTATION(' ',(#18),#16) ;
#18=AXIS2_PLACEMENT_3D(' ',#17,$,$) ;
#34=AXIS2_PLACEMENT_3D('Cylinder Axis2P3D',#31,#32,#33) ;
#38=AXIS2_PLACEMENT_3D('Circle Axis2P3D',#36,#37,$) ;
#54=AXIS2_PLACEMENT_3D('Circle Axis2P3D',#52,#53,$) ;
#73=AXIS2_PLACEMENT_3D('Circle Axis2P3D',#71,#72,$) ;
#78=AXIS2_PLACEMENT_3D('Circle Axis2P3D',#76,#77,$) ;
#91=AXIS2_PLACEMENT_3D('Plane Axis2P3D',#88,#89,#90) ;
#133=AXIS2_PLACEMENT_3D('Circle Axis2P3D',#131,#132,$) ;
#142=AXIS2_PLACEMENT_3D('Circle Axis2P3D',#140,#141,$) ;
#153=AXIS2_PLACEMENT_3D('Plane Axis2P3D',#150,#151,#152) ;
#184=AXIS2_PLACEMENT_3D('Plane Axis2P3D',#181,#182,#183) ;
#208=AXIS2_PLACEMENT_3D('Cylinder Axis2P3D',#205,#206,#207) ;
#212=AXIS2_PLACEMENT_3D('Circle Axis2P3D',#210,#211,$) ;
#238=AXIS2_PLACEMENT_3D('Circle Axis2P3D',#236,#237,$) ;
#251=AXIS2_PLACEMENT_3D('Plane Axis2P3D',#248,#249,#250) ;
#275=AXIS2_PLACEMENT_3D('Plane Axis2P3D',#272,#273,#274) ;
#292=AXIS2_PLACEMENT_3D('Plane Axis2P3D',#289,#290,#291) ;
#17=CARTESIAN_POINT(' ',(0.,0.,0.)) ;
#31=CARTESIAN_POINT('Axis2P3D Location',(44.,18.5,4.33999999983)) ;
#36=CARTESIAN_POINT('Axis2P3D Location',(44.,18.5,0.)) ;
#40=CARTESIAN_POINT('Vertex',(39.,18.5,0.)) ;
#42=CARTESIAN_POINT('Vertex',(49.,18.5,0.)) ;
#45=CARTESIAN_POINT('Line Origine',(39.,18.5,4.33999999983)) ;
#49=CARTESIAN_POINT('Vertex',(39.,18.5,10.)) ;
#52=CARTESIAN_POINT('Axis2P3D Location',(44.,18.5,10.)) ;
#56=CARTESIAN_POINT('Vertex',(49.,18.5,10.)) ;
#59=CARTESIAN_POINT('Line Origine',(49.,18.5,4.33999999983)) ;
#71=CARTESIAN_POINT('Axis2P3D Location',(44.,18.5,0.)) ;
#76=CARTESIAN_POINT('Axis2P3D Location',(44.,18.5,10.)) ;
#88=CARTESIAN_POINT('Axis2P3D Location',(65.,0.,10.)) ;
#93=CARTESIAN_POINT('Line Origine',(4.66307658155,36.,10.)) ;
#97=CARTESIAN_POINT('Vertex',(4.66307658155,0.,10.)) ;
#99=CARTESIAN_POINT('Vertex',(4.66307658155,72.,10.)) ;
#102=CARTESIAN_POINT('Line Origine',(34.8315382908,0.,10.)) ;
#106=CARTESIAN_POINT('Vertex',(65.,0.,10.)) ;
#109=CARTESIAN_POINT('Line Origine',(65.,36.,10.)) ;
#113=CARTESIAN_POINT('Vertex',(65.,72.,10.)) ;
#116=CARTESIAN_POINT('Line Origine',(34.8315382908,72.,10.)) ;
#131=CARTESIAN_POINT('Axis2P3D Location',(44.,53.5,10.)) ;
#135=CARTESIAN_POINT('Vertex',(39.,53.5,10.)) ;
#137=CARTESIAN_POINT('Vertex',(49.,53.5,10.)) ;
#140=CARTESIAN_POINT('Axis2P3D Location',(44.,53.5,10.)) ;
#150=CARTESIAN_POINT('Axis2P3D Location',(65.,0.,0.)) ;
#155=CARTESIAN_POINT('Line Origine',(65.,0.,5.)) ;
#159=CARTESIAN_POINT('Vertex',(65.,0.,0.)) ;
#162=CARTESIAN_POINT('Line Origine',(65.,36.,0.)) ;
#166=CARTESIAN_POINT('Vertex',(65.,72.,0.)) ;
#169=CARTESIAN_POINT('Line Origine',(65.,72.,5.)) ;
#181=CARTESIAN_POINT('Axis2P3D Location',(0.,0.,0.)) ;
#186=CARTESIAN_POINT('Line Origine',(32.5,0.,0.)) ;
#190=CARTESIAN_POINT('Vertex',(3.64153152077E-14,0.,7.72715225139E-14)) ;
#193=CARTESIAN_POINT('Line Origine',(2.33153829078,0.,5.)) ;
#205=CARTESIAN_POINT('Axis2P3D Location',(44.,53.5,4.33999999983)) ;
#210=CARTESIAN_POINT('Axis2P3D Location',(44.,53.5,0.)) ;
#214=CARTESIAN_POINT('Vertex',(39.,53.5,0.)) ;
#216=CARTESIAN_POINT('Vertex',(49.,53.5,0.)) ;
#219=CARTESIAN_POINT('Line Origine',(39.,53.5,4.33999999983)) ;
#224=CARTESIAN_POINT('Line Origine',(49.,53.5,4.33999999983)) ;
#236=CARTESIAN_POINT('Axis2P3D Location',(44.,53.5,0.)) ;
#248=CARTESIAN_POINT('Axis2P3D Location',(3.64153152077E-14,0.,7.72715225139E-14)) ;
#253=CARTESIAN_POINT('Line Origine',(3.64153152077E-14,36.,7.72715225139E-14)) ;
#257=CARTESIAN_POINT('Vertex',(3.64153152077E-14,72.,7.72715225139E-14)) ;
#260=CARTESIAN_POINT('Line Origine',(2.33153829078,72.,5.)) ;
#272=CARTESIAN_POINT('Axis2P3D Location',(0.,72.,0.)) ;
#277=CARTESIAN_POINT('Line Origine',(32.5,72.,0.)) ;
#289=CARTESIAN_POINT('Axis2P3D Location',(0.,0.,0.)) ;
#32=DIRECTION('Axis2P3D Direction',(0.,0.,1.)) ;
#33=DIRECTION('Axis2P3D XDirection',(1.,0.,0.)) ;
#37=DIRECTION('Axis2P3D Direction',(0.,0.,1.)) ;
#46=DIRECTION('Vector Direction',(0.,0.,1.)) ;
#53=DIRECTION('Axis2P3D Direction',(0.,0.,1.)) ;
#60=DIRECTION('Vector Direction',(0.,0.,1.)) ;
#72=DIRECTION('Axis2P3D Direction',(0.,0.,1.)) ;
#77=DIRECTION('Axis2P3D Direction',(0.,0.,1.)) ;
#89=DIRECTION('Axis2P3D Direction',(0.,0.,-1.)) ;
#90=DIRECTION('Axis2P3D XDirection',(-1.,0.,0.)) ;
#94=DIRECTION('Vector Direction',(0.,1.,0.)) ;
#103=DIRECTION('Vector Direction',(-1.,0.,0.)) ;
#110=DIRECTION('Vector Direction',(0.,1.,0.)) ;
#117=DIRECTION('Vector Direction',(-1.,0.,0.)) ;
#132=DIRECTION('Axis2P3D Direction',(0.,0.,-1.)) ;
#141=DIRECTION('Axis2P3D Direction',(0.,0.,-1.)) ;
#151=DIRECTION('Axis2P3D Direction',(-1.,0.,0.)) ;
#152=DIRECTION('Axis2P3D XDirection',(0.,0.,1.)) ;
#156=DIRECTION('Vector Direction',(0.,0.,1.)) ;
#163=DIRECTION('Vector Direction',(0.,1.,0.)) ;
#170=DIRECTION('Vector Direction',(0.,0.,1.)) ;
#182=DIRECTION('Axis2P3D Direction',(0.,1.,-0.)) ;
#183=DIRECTION('Axis2P3D XDirection',(-1.,0.,0.)) ;
#187=DIRECTION('Vector Direction',(1.,0.,0.)) ;
#194=DIRECTION('Vector Direction',(0.422618261741,0.,0.906307787037)) ;
#206=DIRECTION('Axis2P3D Direction',(0.,0.,1.)) ;
#207=DIRECTION('Axis2P3D XDirection',(1.,0.,0.)) ;
#211=DIRECTION('Axis2P3D Direction',(0.,0.,1.)) ;
#220=DIRECTION('Vector Direction',(0.,0.,1.)) ;
#225=DIRECTION('Vector Direction',(0.,0.,1.)) ;
#237=DIRECTION('Axis2P3D Direction',(0.,0.,1.)) ;
#249=DIRECTION('Axis2P3D Direction',(-0.906307787037,0.,0.422618261741)) ;
#250=DIRECTION('Axis2P3D XDirection',(0.422618261741,0.,0.906307787037)) ;
#254=DIRECTION('Vector Direction',(0.,1.,0.)) ;
#261=DIRECTION('Vector Direction',(0.422618261741,0.,0.906307787037)) ;
#273=DIRECTION('Axis2P3D Direction',(0.,1.,-0.)) ;
#274=DIRECTION('Axis2P3D XDirection',(-1.,0.,0.)) ;
#278=DIRECTION('Vector Direction',(1.,0.,0.)) ;
#290=DIRECTION('Axis2P3D Direction',(0.,0.,1.)) ;
#291=DIRECTION('Axis2P3D XDirection',(1.,0.,0.)) ;
#8=PRODUCT_RELATED_PRODUCT_CATEGORY('part',$,(#5)) ;
#7=PRODUCT_CATEGORY('part','specification') ;
#29=STYLED_ITEM(' ',(#28),#21) ;
#28=PRESENTATION_STYLE_ASSIGNMENT((#27)) ;
#27=SURFACE_STYLE_USAGE(.BOTH.,#26) ;
#26=SURFACE_SIDE_STYLE(' ',(#25)) ;
#25=SURFACE_STYLE_FILL_AREA(#24) ;
#24=FILL_AREA_STYLE(' ',(#23)) ;
#23=FILL_AREA_STYLE_COLOUR(' ',#22) ;
#47=VECTOR('Line Direction',#46,1.) ;
#61=VECTOR('Line Direction',#60,1.) ;
#95=VECTOR('Line Direction',#94,1.) ;
#104=VECTOR('Line Direction',#103,1.) ;
#111=VECTOR('Line Direction',#110,1.) ;
#118=VECTOR('Line Direction',#117,1.) ;
#157=VECTOR('Line Direction',#156,1.) ;
#164=VECTOR('Line Direction',#163,1.) ;
#171=VECTOR('Line Direction',#170,1.) ;
#188=VECTOR('Line Direction',#187,1.) ;
#195=VECTOR('Line Direction',#194,1.) ;
#221=VECTOR('Line Direction',#220,1.) ;
#226=VECTOR('Line Direction',#225,1.) ;
#255=VECTOR('Line Direction',#254,1.) ;
#262=VECTOR('Line Direction',#261,1.) ;
#279=VECTOR('Line Direction',#278,1.) ;
#15=UNCERTAINTY_MEASURE_WITH_UNIT(LENGTH_MEASURE(0.005),#12,'distance_accuracy_value','CONFUSED CURVE UNCERTAINTY') ;
#310=SHAPE_REPRESENTATION_RELATIONSHIP(' ',' ',#19,#309) ;
#65=ORIENTED_EDGE('',*,*,#44,.F.) ;
#66=ORIENTED_EDGE('',*,*,#51,.F.) ;
#67=ORIENTED_EDGE('',*,*,#58,.T.) ;
#68=ORIENTED_EDGE('',*,*,#63,.T.) ;
#82=ORIENTED_EDGE('',*,*,#75,.F.) ;
#83=ORIENTED_EDGE('',*,*,#63,.F.) ;
#84=ORIENTED_EDGE('',*,*,#80,.T.) ;
#85=ORIENTED_EDGE('',*,*,#51,.T.) ;
#122=ORIENTED_EDGE('',*,*,#101,.F.) ;
#123=ORIENTED_EDGE('',*,*,#108,.T.) ;
#124=ORIENTED_EDGE('',*,*,#115,.T.) ;
#125=ORIENTED_EDGE('',*,*,#120,.F.) ;
#128=ORIENTED_EDGE('',*,*,#58,.F.) ;
#129=ORIENTED_EDGE('',*,*,#80,.F.) ;
#146=ORIENTED_EDGE('',*,*,#139,.F.) ;
#147=ORIENTED_EDGE('',*,*,#144,.F.) ;
#175=ORIENTED_EDGE('',*,*,#115,.F.) ;
#176=ORIENTED_EDGE('',*,*,#161,.T.) ;
#177=ORIENTED_EDGE('',*,*,#168,.T.) ;
#178=ORIENTED_EDGE('',*,*,#173,.F.) ;
#199=ORIENTED_EDGE('',*,*,#192,.F.) ;
#200=ORIENTED_EDGE('',*,*,#161,.F.) ;
#201=ORIENTED_EDGE('',*,*,#108,.F.) ;
#202=ORIENTED_EDGE('',*,*,#197,.F.) ;
#230=ORIENTED_EDGE('',*,*,#218,.F.) ;
#231=ORIENTED_EDGE('',*,*,#223,.F.) ;
#232=ORIENTED_EDGE('',*,*,#139,.T.) ;
#233=ORIENTED_EDGE('',*,*,#228,.T.) ;
#242=ORIENTED_EDGE('',*,*,#240,.F.) ;
#243=ORIENTED_EDGE('',*,*,#228,.F.) ;
#244=ORIENTED_EDGE('',*,*,#144,.T.) ;
#245=ORIENTED_EDGE('',*,*,#223,.T.) ;
#266=ORIENTED_EDGE('',*,*,#259,.F.) ;
#267=ORIENTED_EDGE('',*,*,#197,.T.) ;
#268=ORIENTED_EDGE('',*,*,#101,.T.) ;
#269=ORIENTED_EDGE('',*,*,#264,.F.) ;
#283=ORIENTED_EDGE('',*,*,#264,.T.) ;
#284=ORIENTED_EDGE('',*,*,#120,.T.) ;
#285=ORIENTED_EDGE('',*,*,#173,.T.) ;
#286=ORIENTED_EDGE('',*,*,#281,.T.) ;
#295=ORIENTED_EDGE('',*,*,#168,.F.) ;
#296=ORIENTED_EDGE('',*,*,#192,.T.) ;
#297=ORIENTED_EDGE('',*,*,#259,.T.) ;
#298=ORIENTED_EDGE('',*,*,#281,.F.) ;
#301=ORIENTED_EDGE('',*,*,#44,.T.) ;
#302=ORIENTED_EDGE('',*,*,#75,.T.) ;
#305=ORIENTED_EDGE('',*,*,#218,.T.) ;
#306=ORIENTED_EDGE('',*,*,#240,.T.) ;
#130=FACE_BOUND('',#127,.T.) ;
#148=FACE_BOUND('',#145,.T.) ;
#303=FACE_BOUND('',#300,.T.) ;
#307=FACE_BOUND('',#304,.T.) ;
#30=CLOSED_SHELL('Closed Shell',(#70,#87,#149,#180,#204,#235,#247,#271,#288,#308)) ;
#309=ADVANCED_BREP_SHAPE_REPRESENTATION('NONE',(#21),#16) ;
#70=ADVANCED_FACE('PartBody',(#69),#35,.F.) ;
#87=ADVANCED_FACE('PartBody',(#86),#35,.F.) ;
#149=ADVANCED_FACE('PartBody',(#126,#130,#148),#92,.F.) ;
#180=ADVANCED_FACE('PartBody',(#179),#154,.F.) ;
#204=ADVANCED_FACE('PartBody',(#203),#185,.F.) ;
#235=ADVANCED_FACE('PartBody',(#234),#209,.F.) ;
#247=ADVANCED_FACE('PartBody',(#246),#209,.F.) ;
#271=ADVANCED_FACE('PartBody',(#270),#252,.T.) ;
#288=ADVANCED_FACE('PartBody',(#287),#276,.T.) ;
#308=ADVANCED_FACE('PartBody',(#299,#303,#307),#293,.F.) ;
#4=APPLICATION_PROTOCOL_DEFINITION('international standard','automotive_design',2001,#1) ;
#21=MANIFOLD_SOLID_BREP('PartBody',#30) ;
#39=CIRCLE('generated circle',#38,5.) ;
#55=CIRCLE('generated circle',#54,5.) ;
#74=CIRCLE('generated circle',#73,5.) ;
#79=CIRCLE('generated circle',#78,5.) ;
#134=CIRCLE('generated circle',#133,5.) ;
#143=CIRCLE('generated circle',#142,5.) ;
#213=CIRCLE('generated circle',#212,5.) ;
#239=CIRCLE('generated circle',#238,5.) ;
#22=COLOUR_RGB('Colour',0.823529411765,0.823529411765,1.) ;
#35=CYLINDRICAL_SURFACE('generated cylinder',#34,5.) ;
#209=CYLINDRICAL_SURFACE('generated cylinder',#208,5.) ;
#44=EDGE_CURVE('',#41,#43,#39,.T.) ;
#51=EDGE_CURVE('',#50,#41,#48,.F.) ;
#58=EDGE_CURVE('',#50,#57,#55,.T.) ;
#63=EDGE_CURVE('',#57,#43,#62,.F.) ;
#75=EDGE_CURVE('',#43,#41,#74,.T.) ;
#80=EDGE_CURVE('',#57,#50,#79,.T.) ;
#101=EDGE_CURVE('',#98,#100,#96,.T.) ;
#108=EDGE_CURVE('',#98,#107,#105,.F.) ;
#115=EDGE_CURVE('',#107,#114,#112,.T.) ;
#120=EDGE_CURVE('',#100,#114,#119,.F.) ;
#139=EDGE_CURVE('',#136,#138,#134,.F.) ;
#144=EDGE_CURVE('',#138,#136,#143,.F.) ;
#161=EDGE_CURVE('',#107,#160,#158,.F.) ;
#168=EDGE_CURVE('',#160,#167,#165,.T.) ;
#173=EDGE_CURVE('',#114,#167,#172,.F.) ;
#192=EDGE_CURVE('',#160,#191,#189,.F.) ;
#197=EDGE_CURVE('',#191,#98,#196,.T.) ;
#218=EDGE_CURVE('',#215,#217,#213,.T.) ;
#223=EDGE_CURVE('',#136,#215,#222,.F.) ;
#228=EDGE_CURVE('',#138,#217,#227,.F.) ;
#240=EDGE_CURVE('',#217,#215,#239,.T.) ;
#259=EDGE_CURVE('',#191,#258,#256,.T.) ;
#264=EDGE_CURVE('',#258,#100,#263,.T.) ;
#281=EDGE_CURVE('',#167,#258,#280,.F.) ;
#64=EDGE_LOOP('',(#65,#66,#67,#68)) ;
#81=EDGE_LOOP('',(#82,#83,#84,#85)) ;
#121=EDGE_LOOP('',(#122,#123,#124,#125)) ;
#127=EDGE_LOOP('',(#128,#129)) ;
#145=EDGE_LOOP('',(#146,#147)) ;
#174=EDGE_LOOP('',(#175,#176,#177,#178)) ;
#198=EDGE_LOOP('',(#199,#200,#201,#202)) ;
#229=EDGE_LOOP('',(#230,#231,#232,#233)) ;
#241=EDGE_LOOP('',(#242,#243,#244,#245)) ;
#265=EDGE_LOOP('',(#266,#267,#268,#269)) ;
#282=EDGE_LOOP('',(#283,#284,#285,#286)) ;
#294=EDGE_LOOP('',(#295,#296,#297,#298)) ;
#300=EDGE_LOOP('',(#301,#302)) ;
#304=EDGE_LOOP('',(#305,#306)) ;
#69=FACE_OUTER_BOUND('',#64,.T.) ;
#86=FACE_OUTER_BOUND('',#81,.T.) ;
#126=FACE_OUTER_BOUND('',#121,.T.) ;
#179=FACE_OUTER_BOUND('',#174,.T.) ;
#203=FACE_OUTER_BOUND('',#198,.T.) ;
#234=FACE_OUTER_BOUND('',#229,.T.) ;
#246=FACE_OUTER_BOUND('',#241,.T.) ;
#270=FACE_OUTER_BOUND('',#265,.T.) ;
#287=FACE_OUTER_BOUND('',#282,.T.) ;
#299=FACE_OUTER_BOUND('',#294,.T.) ;
#48=LINE('Line',#45,#47) ;
#62=LINE('Line',#59,#61) ;
#96=LINE('Line',#93,#95) ;
#105=LINE('Line',#102,#104) ;
#112=LINE('Line',#109,#111) ;
#119=LINE('Line',#116,#118) ;
#158=LINE('Line',#155,#157) ;
#165=LINE('Line',#162,#164) ;
#172=LINE('Line',#169,#171) ;
#189=LINE('Line',#186,#188) ;
#196=LINE('Line',#193,#195) ;
#222=LINE('Line',#219,#221) ;
#227=LINE('Line',#224,#226) ;
#256=LINE('Line',#253,#255) ;
#263=LINE('Line',#260,#262) ;
#280=LINE('Line',#277,#279) ;
#92=PLANE('',#91) ;
#154=PLANE('',#153) ;
#185=PLANE('',#184) ;
#252=PLANE('',#251) ;
#276=PLANE('',#275) ;
#293=PLANE('',#292) ;
#9=PRODUCT_CATEGORY_RELATIONSHIP(' ',' ',#7,#8) ;
#6=PRODUCT_DEFINITION_FORMATION_WITH_SPECIFIED_SOURCE('02.3',' ',#5,.NOT_KNOWN.) ;
#20=SHAPE_DEFINITION_REPRESENTATION(#11,#19) ;
#41=VERTEX_POINT('',#40) ;
#43=VERTEX_POINT('',#42) ;
#50=VERTEX_POINT('',#49) ;
#57=VERTEX_POINT('',#56) ;
#98=VERTEX_POINT('',#97) ;
#100=VERTEX_POINT('',#99) ;
#107=VERTEX_POINT('',#106) ;
#114=VERTEX_POINT('',#113) ;
#136=VERTEX_POINT('',#135) ;
#138=VERTEX_POINT('',#137) ;
#160=VERTEX_POINT('',#159) ;
#167=VERTEX_POINT('',#166) ;
#191=VERTEX_POINT('',#190) ;
#215=VERTEX_POINT('',#214) ;
#217=VERTEX_POINT('',#216) ;
#258=VERTEX_POINT('',#257) ;
#12=(LENGTH_UNIT()NAMED_UNIT(*)SI_UNIT(.MILLI.,.METRE.)) ;
#13=(NAMED_UNIT(*)PLANE_ANGLE_UNIT()SI_UNIT($,.RADIAN.)) ;
#14=(NAMED_UNIT(*)SI_UNIT($,.STERADIAN.)SOLID_ANGLE_UNIT()) ;
#16=(GEOMETRIC_REPRESENTATION_CONTEXT(3)GLOBAL_UNCERTAINTY_ASSIGNED_CONTEXT((#15))GLOBAL_UNIT_ASSIGNED_CONTEXT((#12,#13,#14))REPRESENTATION_CONTEXT(' ',' ')) ;
ENDSEC;
END-ISO-10303-21;
